<svg width="120" height="120" viewBox="0 0 120 120" fill="none" xmlns="http://www.w3.org/2000/svg">
<g clip-path="url(#clip0)">
<path d="M120 63.0047C119.906 64.2253 119.718 65.446 119.624 66.6667C118.592 75.9624 115.587 84.6948 110.423 92.4883C101.596 105.915 89.2958 114.554 73.615 118.31C67.4178 119.812 61.1267 120.188 54.7418 119.624C32.5821 117.746 13.1455 103.474 4.69482 83.0047C0.938951 74.2723 -0.469499 65.0704 0.187777 55.493C1.59623 34.7418 14.3662 15.6808 33.0516 6.38498C39.6244 3.09859 46.5728 1.12676 53.8967 0.28169C54.9296 0.187793 55.8685 0.0938967 56.9014 0C58.9671 0 60.9389 0 63.0047 0C63.1925 0 63.4742 0.0938967 63.662 0.0938967C66.9483 0.28169 70.2347 0.751174 73.5211 1.50235C89.2019 5.25822 101.502 13.8967 110.329 27.4178C115.493 35.2113 118.498 43.9437 119.53 53.2394C119.624 54.4601 119.812 55.6807 119.906 56.9014C120 58.9671 120 61.0329 120 63.0047ZM4.78872 60C4.78872 90.4225 29.5774 115.211 60 115.211C90.4225 115.211 115.211 90.4225 115.211 60C115.211 29.6714 90.4225 4.88263 60.1878 4.78873C29.5774 4.78873 4.78872 29.4836 4.78872 60Z" fill="#062C84"/>
<path d="M31.9249 81.5963C39.5305 81.5963 47.2301 81.5963 54.9296 81.5963C54.9296 82.2535 54.9296 82.9108 54.9296 83.5681C54.7418 83.5681 54.4601 83.5681 54.2723 83.5681C46.9484 83.5681 39.6244 83.5681 32.3005 83.5681C30.7042 83.5681 29.9531 82.8169 29.9531 81.2207C29.9531 67.4179 29.9531 53.615 29.9531 39.8122C29.9531 38.1221 30.7042 37.3709 32.3944 37.3709C34.8357 37.3709 37.1831 37.3709 39.6244 37.3709C39.9061 37.3709 40.0939 37.3709 40.3756 37.3709C40.7512 32.2066 44.7887 30.047 47.6995 30.1409C51.0798 30.1409 54.7418 32.77 54.9296 37.3709C55.493 37.3709 55.9625 37.3709 56.5258 37.3709C58.7794 37.3709 60.939 37.3709 63.1925 37.3709C64.5071 37.3709 65.3521 38.216 65.3521 39.5305C65.3521 49.6714 65.3521 59.8122 65.3521 69.9531C65.3521 70.047 65.3521 70.1409 65.3521 70.2348C64.7887 70.2348 64.1315 70.2348 63.4742 70.2348C63.4742 69.9531 63.4742 69.6714 63.4742 69.3897C63.4742 59.7183 63.4742 49.9531 63.5681 40.2817C63.5681 39.2488 63.5681 39.2488 62.6291 39.2488C52.77 39.2488 42.8169 39.2488 32.9578 39.2488C32.6761 39.2488 32.3944 39.2488 32.0188 39.2488C31.9249 53.3334 31.9249 67.4179 31.9249 81.5963ZM42.3474 37.3709C45.9155 37.3709 49.4836 37.3709 53.0517 37.3709C52.9578 34.2723 50.4225 31.831 47.5117 32.0188C44.5071 32.2066 42.0657 34.6479 42.3474 37.3709Z" fill="#062C84"/>
<path d="M47.6056 70.7043C42.0657 70.7043 37.3709 66.1033 37.277 60.5634C37.277 54.8357 41.784 50.2348 47.5117 50.1409C53.2394 50.1409 57.9343 54.7418 57.9343 60.4695C58.0282 66.1033 53.3333 70.7043 47.6056 70.7043ZM56.0563 62.0658C56.9014 58.9672 55.3051 54.8357 51.6432 52.8639C47.9812 50.9859 43.5681 51.831 40.9389 55.1174C38.4037 58.216 38.4037 62.3474 40.5634 65.2582C41.4084 64.2254 42.1596 63.1925 43.0047 62.0658C43.7558 63.4742 44.507 64.8827 45.2582 66.2911C47.6056 63.0986 49.8591 60 52.1127 56.8075C53.4272 58.6855 54.7418 60.3756 56.0563 62.0658Z" fill="#59B300"/>
<path d="M88.169 32.77C79.6244 32.77 71.0798 32.77 62.5352 32.77C62.5352 33.709 62.5352 34.648 62.5352 35.6808C61.9718 35.6808 61.5023 35.6808 60.939 35.6808C60.939 34.5541 60.939 33.3334 60.939 32.2066C60.939 31.5494 61.6901 30.986 62.4413 30.8921C62.6291 30.8921 62.8169 30.8921 63.0047 30.8921C71.2676 30.8921 79.6244 30.8921 87.8873 30.8921C89.4836 30.8921 90.0469 31.4555 90.0469 33.0517C90.0469 44.1315 90.0469 55.2113 90.0469 66.2911C90.0469 66.9484 89.953 67.6057 89.3897 68.0752C89.108 68.263 88.7324 68.3569 88.3568 68.3569C81.3146 68.3569 74.3662 68.3569 67.3239 68.3569C67.23 68.3569 67.1361 68.3569 67.0423 68.3569C67.0423 67.7935 67.0423 67.324 67.0423 66.6667C74.1784 66.6667 81.2207 66.6667 88.4507 66.6667C88.3568 55.2113 88.2629 44.0376 88.169 32.77Z" fill="#062C84"/>
<path d="M72.1127 86.6667C72.1127 87.2301 72.1127 87.7935 72.1127 88.3569C72.1127 89.5775 71.7371 89.8592 70.5164 89.8592C66.6666 89.8592 62.8169 89.8592 58.9671 89.8592C58.5915 89.8592 58.2159 89.8592 57.8403 89.8592C57.0892 89.8592 56.6197 89.3897 56.6197 88.6385C56.6197 83.4742 56.6197 78.3099 56.6197 73.0517C56.6197 72.3005 56.9953 71.9249 57.7465 71.9249C62.1596 71.9249 66.4788 71.9249 70.892 71.9249C71.6432 71.9249 72.0188 72.3944 72.0188 73.1456C72.0188 73.8029 72.0188 74.4601 72.0188 75.1174C74.0845 75.3052 75.6807 76.0564 76.8075 77.7465C77.5587 78.8733 77.8404 80 77.7465 81.3146C77.5587 83.7559 75.7746 86.385 72.1127 86.6667ZM58.4976 87.9813C62.4413 87.9813 66.2911 87.9813 70.2347 87.9813C70.2347 83.2864 70.2347 78.5916 70.2347 73.8968C66.2911 73.8968 62.4413 73.8968 58.4976 73.8968C58.4976 78.5916 58.4976 83.2864 58.4976 87.9813ZM72.1127 77.0892C72.1127 79.6245 72.1127 82.1597 72.1127 84.6949C74.0845 84.7888 75.8685 83.0047 75.8685 80.939C75.9624 78.8733 74.1784 76.9953 72.1127 77.0892Z" fill="#062C84"/>
<path d="M75.3991 56.1503C71.831 56.1503 68.8263 53.1456 68.8263 49.5775C68.8263 46.0094 71.831 43.0986 75.3991 43.0986C79.061 43.0986 81.9718 46.0094 81.9718 49.6714C82.0657 53.2395 79.1549 56.1503 75.3991 56.1503ZM80.8451 50.6104C81.5023 48.6385 80.2817 46.1033 78.216 44.8827C75.9624 43.5681 73.0516 44.0376 71.3615 46.0094C69.7653 47.8874 69.5775 50.7982 70.9859 52.5822C71.4554 51.9249 72.0188 51.2676 72.4883 50.5165C72.9577 51.4554 73.4272 52.3005 73.8967 53.2395C75.3991 51.1737 76.8075 49.2019 78.3099 47.2301C79.2488 48.4507 80 49.4836 80.8451 50.6104Z" fill="#59B300"/>
<path d="M64.3192 76.432C66.7606 76.432 68.8263 78.4038 68.8263 80.8451C68.8263 83.3803 66.8545 85.3522 64.3192 85.3522C61.8779 85.3522 59.8122 83.2865 59.9061 80.939C59.9061 78.4038 61.8779 76.432 64.3192 76.432ZM68.0751 81.5024C68.4507 79.9062 67.6056 78.3099 66.1033 77.4649C64.507 76.7137 62.723 77.0893 61.6901 78.4038C60.5634 79.7184 60.4695 81.5963 61.4084 82.817C61.784 82.4414 62.0657 81.9719 62.4413 81.5024C62.8169 82.1597 63.0986 82.7231 63.4742 83.3804C64.507 81.9719 65.446 80.6574 66.4789 79.3428C66.9484 80.094 67.4178 80.8451 68.0751 81.5024Z" fill="#59B300"/>
</g>
<defs>
<clipPath id="clip0">
<rect width="120" height="120" fill="white"/>
</clipPath>
</defs>
</svg>
