<svg width="120" height="120" viewBox="0 0 120 120" fill="none" xmlns="http://www.w3.org/2000/svg">
<g clip-path="url(#clip0)">
<path d="M0 56.9953C0.0938967 55.7746 0.28169 54.554 0.375587 53.3333C1.40845 44.4131 4.13146 36.1502 8.92019 28.5446C17.8404 14.4601 30.3286 5.446 46.4789 1.59624C52.6761 0.0938926 58.9671 -0.281694 65.2582 0.281686C89.108 2.44131 109.108 18.216 116.808 40.7512C119.437 48.4507 120.469 56.4319 119.812 64.6009C117.934 88.169 102.817 108.075 80.7512 116.338C75.2113 118.404 69.4836 119.624 63.5681 119.906C63.3803 119.906 63.0986 120 62.9108 120C60.939 120 58.9671 120 57.0892 120C56.8075 120 56.6197 119.906 56.338 119.906C52.9577 119.718 49.6714 119.249 46.385 118.498C30.2347 114.554 17.6526 105.54 8.82629 91.4554C4.13145 83.9436 1.31455 75.6807 0.375587 66.8544C0.28169 65.446 0.0938967 64.2253 0 62.9108C0 60.939 0 58.9671 0 56.9953ZM60 4.78873C29.5775 4.78873 4.78873 29.5775 4.78873 60C4.78873 90.4225 29.5775 115.211 60 115.211C90.4225 115.211 115.117 90.5164 115.211 60.0939C115.211 29.6714 90.4225 4.78873 60 4.78873Z" fill="#062C84"/>
<path d="M86.1033 76.432C84.9765 75.9625 83.9437 75.5869 82.9108 75.1174C82.8169 75.1174 82.723 74.9296 82.723 74.7418C82.723 74.554 82.723 74.3662 82.723 74.1784C82.723 62.8169 82.723 51.4554 82.723 40.0939C82.723 39.8122 82.723 39.5305 82.723 39.2489C67.9812 39.2489 53.2394 39.2489 38.4976 39.2489C38.4976 53.9906 38.4976 68.6385 38.4976 83.4742C38.7793 83.4742 39.1549 83.4742 39.4366 83.4742C50.7042 83.4742 61.9718 83.4742 73.2394 83.4742C73.8028 83.4742 74.1784 83.662 74.3662 84.2254C74.6479 85.0704 75.0235 86.0094 75.3991 86.9484C63.0986 86.9484 50.7981 86.9484 38.4976 86.9484C38.4976 87.2301 38.4976 87.5118 38.4976 87.6996C38.4976 89.9531 38.4976 92.3005 38.4976 94.554C38.4976 94.9296 38.4976 95.3052 38.3099 95.5869C38.0282 96.3381 37.1831 96.7136 36.4319 96.6198C35.6807 96.5258 35.1174 95.7747 35.0235 94.9296C35.0235 92.5822 35.0235 90.1409 35.0235 87.7935C35.0235 87.5118 35.0235 87.324 35.0235 86.9484C34.7418 86.9484 34.4601 86.9484 34.1784 86.9484C31.831 86.9484 29.3897 86.9484 27.0422 86.9484C26.1972 86.9484 25.6338 86.4789 25.446 85.8216C25.1643 85.1643 25.3521 84.3193 26.0094 83.9437C26.385 83.662 26.9484 83.5681 27.4178 83.5681C29.6714 83.5681 31.9249 83.5681 34.1784 83.5681C34.4601 83.5681 34.7418 83.5681 35.0235 83.5681C35.0235 68.8263 35.0235 54.0845 35.0235 39.2489C34.7418 39.2489 34.4601 39.2489 34.1784 39.2489C31.831 39.2489 29.5775 39.2489 27.23 39.2489C25.7277 39.2489 24.8826 37.9343 25.5399 36.7136C25.9155 35.9625 26.5728 35.7747 27.3239 35.7747C29.5775 35.7747 31.9249 35.7747 34.1784 35.7747C34.4601 35.7747 34.7418 35.7747 35.0235 35.7747C35.0235 35.493 35.0235 35.2113 35.0235 35.0235C35.0235 32.6761 35.0235 30.2348 35.0235 27.8874C35.0235 26.9484 35.6807 26.1972 36.6197 26.1972C37.5587 26.1033 38.3099 26.7606 38.4976 27.6996C38.4976 27.9813 38.4976 28.169 38.4976 28.4507C38.4976 30.6104 38.4976 32.8639 38.4976 35.0235C38.4976 35.3052 38.4976 35.493 38.4976 35.7747C53.3333 35.7747 67.9812 35.7747 82.8169 35.7747C82.8169 35.3991 82.8169 35.1174 82.8169 34.8357C82.8169 32.5822 82.8169 30.3287 82.8169 28.0751C82.8169 27.0423 83.4742 26.2911 84.3192 26.1972C85.3521 26.1033 86.1972 26.8545 86.1972 27.9813C86.1972 30.3287 86.1972 32.6761 86.1972 35.0235C86.1972 35.3052 86.1972 35.493 86.1972 35.8686C86.4789 35.8686 86.7606 35.8686 87.0422 35.8686C89.2958 35.8686 91.6432 35.8686 93.8967 35.8686C94.9296 35.8686 95.493 36.2442 95.7746 36.9953C96.1502 38.216 95.399 39.2489 93.9906 39.2489C91.6432 39.2489 89.3897 39.2489 87.0422 39.2489C86.7606 39.2489 86.4789 39.2489 86.1972 39.2489C86.1033 51.6432 86.1033 63.9437 86.1033 76.432Z" fill="#062C84"/>
<path d="M75.5868 75.493C79.4366 76.9953 83.2864 78.4977 87.1361 80.0939C88.7324 80.7512 90.3286 81.3146 91.9249 82.0657C92.2066 82.1596 92.3944 82.5352 92.4882 82.723C93.1455 85.8216 93.7089 88.9202 94.2723 92.1127C94.3662 92.1127 94.4601 92.1127 94.4601 92.0188C95.399 91.1737 95.4929 91.1737 96.4319 92.1127C97.8404 93.5211 97.8404 93.5211 96.4319 94.9296C95.3051 96.0564 94.1784 97.1831 93.0516 98.3099C92.3943 98.9671 92.1127 98.9671 91.4554 98.3099C91.1737 98.0282 90.892 97.7465 90.6103 97.4648C90.0469 96.9014 90.0469 96.6197 90.6103 95.9625C90.7042 95.8686 90.7981 95.7747 90.892 95.5869C89.2019 95.3052 87.5117 94.9296 85.9155 94.6479C84.4131 94.3662 82.9108 94.0845 81.5023 93.8028C81.2206 93.7089 80.939 93.5211 80.8451 93.3333C78.6854 87.8873 76.5258 82.5352 74.4601 77.0892C74.4601 76.9953 74.4601 76.9953 74.4601 76.9014C78.1221 80.5634 81.784 84.2254 85.5399 87.9812C85.9155 87.5118 86.1972 87.2301 86.4789 86.8545C82.8169 83.1925 79.1549 79.5305 75.4929 75.8686C75.4929 75.5869 75.5868 75.493 75.5868 75.493Z" fill="#FF7F00"/>
<path d="M64.8826 64.7887C62.629 66.385 60.2816 66.1972 58.7793 64.507C57.0891 62.5352 56.9952 59.4366 58.6854 57.4648C60.2816 55.5868 62.4412 55.4929 64.9765 57.0892C64.9765 56.8075 65.0704 56.5258 65.0704 56.2441C65.8215 56.2441 66.5727 56.2441 67.4178 56.2441C67.4178 56.338 67.5117 56.4319 67.5117 56.6197C67.5117 59.5305 67.5117 62.5352 67.5117 65.446C67.5117 67.3239 66.6666 68.8263 64.8826 69.7652C62.9107 70.7042 60.0938 70.3286 58.6854 68.7324C58.4037 68.3568 58.122 67.9812 57.7464 67.5117C58.5915 67.1361 59.3427 66.8544 60.0938 66.4789C60.4694 67.3239 61.0328 67.8873 61.8779 67.9812C62.3474 68.0751 63.0046 67.9812 63.4741 67.7934C64.6948 67.4178 65.1642 66.1972 64.8826 64.7887ZM64.9765 60.9389C64.9765 59.3427 63.9436 58.2159 62.5351 58.2159C61.0328 58.2159 59.9999 59.3427 59.9999 61.0328C59.9999 62.6291 61.1267 63.7558 62.5351 63.7558C63.9436 63.6619 64.9765 62.5352 64.9765 60.9389Z" fill="#062C84"/>
<path d="M50.9859 55.9624C53.9906 55.9624 56.1502 58.122 56.0563 61.1267C56.0563 64.0375 53.8967 66.1971 50.892 66.1971C47.9812 66.1971 45.7277 63.9436 45.8216 61.0328C45.8216 58.2159 48.0751 55.9624 50.9859 55.9624ZM48.3568 61.1267C48.3568 62.9108 49.3896 63.9436 50.9859 63.9436C52.5821 63.9436 53.615 62.8169 53.615 61.1267C53.615 59.4366 52.4882 58.2159 50.9859 58.2159C49.4835 58.3098 48.3568 59.5305 48.3568 61.1267Z" fill="#062C84"/>
<path d="M79.4367 61.1267C79.4367 64.1314 77.2771 66.291 74.2724 66.291C71.3616 66.291 69.108 64.1314 69.108 61.1267C69.108 58.122 71.2677 55.9624 74.2724 55.9624C77.3709 55.9624 79.4367 58.122 79.4367 61.1267ZM74.2724 63.9436C75.7747 63.9436 76.9015 62.8169 76.9954 61.2206C76.9954 59.6244 75.8686 58.3098 74.3662 58.3098C72.8639 58.3098 71.7371 59.5305 71.6432 61.1267C71.6432 62.723 72.77 63.9436 74.2724 63.9436Z" fill="#062C84"/>
<path d="M44.0375 65.9155C43.3803 65.9155 42.8169 65.9155 42.1596 65.9155C41.9718 65.9155 41.784 65.9155 41.5023 65.9155C41.5023 61.4084 41.5023 56.9014 41.5023 52.3943C42.3474 52.3943 43.0986 52.3943 43.9436 52.3943C44.0375 56.9014 44.0375 61.4084 44.0375 65.9155Z" fill="#062C84"/>
</g>
<defs>
<clipPath id="clip0">
<rect width="120" height="120" fill="white"/>
</clipPath>
</defs>
</svg>
