<svg width="24" height="20" viewBox="0 0 24 20" fill="none" xmlns="http://www.w3.org/2000/svg">
<path d="M23 1.80001C22.3 1.10001 21.3 0.600006 20.3 0.600006H3.8C2.7 0.600006 1.7 1.00001 1 1.80001C0.4 2.40001 0 3.30001 0 4.40001V15.7C0 17.8 1.7 19.5 3.8 19.5H20.3C22.4 19.5 24.1 17.8 24.1 15.7V4.40001C24 3.30001 23.6 2.40001 23 1.80001ZM19.4 3.60001L12 7.30001L4.6 3.60001H19.4ZM21 15.6C21 16 20.6 16.4 20.2 16.4H3.8C3.4 16.4 3 16 3 15.6V6.10001L11.2 10.3L11.3 10.4C11.4 10.4 11.4 10.4 11.5 10.5H11.7C11.8 10.5 11.9 10.5 12 10.5C12 10.5 12 10.5 12.1 10.5C12.1 10.5 12.1 10.5 12.2 10.5C12.3 10.5 12.3 10.5 12.4 10.4C12.5 10.4 12.5 10.4 12.6 10.3H12.7L21 6.10001V15.6Z" fill="#29CCB8"/>
</svg>
