<svg width="24" height="24" viewBox="0 0 24 24" fill="none" xmlns="http://www.w3.org/2000/svg">
<path d="M17.55 24H17.25C15.3 23.85 13.65 23.25 12.45 22.65C9.45 21.15 6.75 19.05 4.5 16.5C2.7 14.25 1.5 12.15 0.750004 10.05C0.300004 9.00002 -0.149996 7.50002 3.91528e-06 5.85002C0.150004 4.65002 0.600004 3.60002 1.5 2.70002L3.15 1.05002C4.65 -0.449982 7.05 -0.449982 8.4 1.05002C8.7 1.35002 9 1.65002 9.3 1.95002C9.45 2.10002 9.6 2.25002 9.75 2.40002L11.1 3.75002C12.6 5.25002 12.6 7.50002 10.95 9.00002L10.5 9.60002L10.35 9.75002C10.5 10.05 10.65 10.35 10.95 10.65C12 11.85 13.05 12.9 14.25 13.65L15 12.9C16.5 11.4 18.9 11.4 20.25 12.9L22.8 15.45C23.55 16.2 24 17.1 24 18.15C24 19.05 23.55 20.1 22.95 20.85C22.8 21.15 22.5 21.3 22.35 21.45C22.05 21.75 21.9 21.9 21.6 22.2C20.4 23.4 19.05 24 17.55 24ZM5.1 3.15002C5.1 3.30002 5.1 3.30002 5.1 3.15002L3.6 4.80002C3.15 5.25002 3 5.55002 3 6.15002C2.85 7.20002 3.3 8.25002 3.45 9.00002C4.2 10.95 5.25 12.75 6.75 14.55C8.7 16.8 10.95 18.75 13.65 19.95C14.7 20.4 15.9 21 17.25 21H17.4C18 21 18.6 20.85 19.05 20.4C19.35 20.1 19.65 19.8 19.95 19.5C20.25 19.2 20.4 19.05 20.55 18.9C20.7 18.75 20.85 18.6 20.85 18.3C20.85 18.15 20.7 17.85 20.55 17.7L18.15 15C17.85 14.55 17.4 14.7 17.1 15L15.6 16.5C15.15 16.95 14.4 17.1 13.8 16.8L13.5 16.65C13.2 16.5 13.05 16.35 12.9 16.35C11.4 15.3 9.9 14.1 8.7 12.45C7.95 11.55 7.5 10.8 7.05 10.05C6.9 9.60002 7.05 8.85002 7.5 8.40002C7.8 8.10002 8.1 7.80002 8.4 7.50002L8.85 7.05002C9.3 6.60002 9.3 6.30002 8.85 5.85002L7.65 4.50002C7.5 4.35002 7.35 4.20002 7.2 4.05002C6.9 3.75002 6.6 3.45002 6.3 3.30002C5.85 2.85002 5.55 2.85002 5.1 3.15002Z" fill="#29CCB8"/>
</svg>
