<svg width="120" height="120" viewBox="0 0 120 120" fill="none" xmlns="http://www.w3.org/2000/svg">
<g clip-path="url(#clip0)">
<path d="M57.1496 119.968C55.9277 119.874 54.6117 119.687 53.3898 119.593C43.5202 118.466 34.4025 115.181 26.2249 109.548C13.4414 100.631 5.16975 88.6151 1.5979 73.5017C0.0939571 67.3062 -0.282027 61.1106 0.281949 54.7273C1.69189 39.4262 8.08363 26.378 19.3632 15.9582C28.1048 7.69751 38.5384 2.7223 50.3819 0.750989C79.5207 -3.9426 107.438 12.8605 116.931 40.7404C118.623 45.8095 119.657 50.9724 119.939 56.3231C119.939 56.6048 120.033 56.7925 120.033 57.0741C120.033 59.0454 120.033 61.0167 120.033 62.8942C120.033 63.1758 119.939 63.3635 119.939 63.6451C119.751 66.9307 119.281 70.2162 118.529 73.5017C114.863 88.7089 106.592 100.818 93.7141 109.642C85.5364 115.275 76.5128 118.56 66.7372 119.593C65.5153 119.687 64.1993 119.874 62.9774 119.968C61.0034 119.968 59.1235 119.968 57.1496 119.968ZM60.0635 4.78748C29.6087 4.78748 4.79376 29.5697 4.79376 59.9841C4.79376 90.3986 29.6087 115.181 60.0635 115.181C90.5182 115.181 115.239 90.3986 115.333 60.078C115.333 29.5697 90.5182 4.78748 60.0635 4.78748Z" fill="#062C84"/>
<path d="M60.0635 87.7703C51.5098 87.7703 42.8622 87.7703 34.3085 87.7703C30.5487 87.7703 28.2928 85.5173 28.2928 81.7625C28.2928 67.2123 28.2928 52.7561 28.2928 38.2059C28.2928 34.5449 30.5487 32.1981 34.2145 32.1981C51.4158 32.1981 68.7111 32.1981 85.9124 32.1981C89.5783 32.1981 91.8342 34.5449 91.8342 38.112C91.8342 52.6622 91.8342 67.2123 91.8342 81.7625C91.8342 85.4235 89.4843 87.6764 85.9124 87.6764C77.3588 87.7703 68.7111 87.7703 60.0635 87.7703ZM31.0187 43.6505C31.0187 43.9321 31.0187 44.1198 31.0187 44.3076C31.0187 56.8864 31.0187 69.3714 31.0187 81.9502C31.0187 83.9215 32.1466 85.048 34.0266 85.048C51.3218 85.048 68.6171 85.048 85.9124 85.048C87.8863 85.048 89.0143 83.9215 89.0143 81.9502C89.0143 69.4652 89.0143 56.9803 89.0143 44.4953C89.0143 44.3076 89.0143 44.026 89.0143 43.7444C69.7451 43.6505 50.4759 43.6505 31.0187 43.6505ZM31.1127 40.7405C50.3819 40.7405 69.7451 40.7405 89.1083 40.7405C89.1083 39.8956 89.1083 39.0508 89.1083 38.2998C89.1083 36.0469 88.0743 35.0143 85.8184 35.0143C68.7111 35.0143 51.5098 35.0143 34.4025 35.0143C34.2145 35.0143 34.0265 35.0143 33.8386 35.0143C32.5226 35.1081 31.3947 35.953 31.2067 37.2672C31.0187 38.3937 31.1127 39.614 31.1127 40.7405Z" fill="#062C84"/>
<path d="M43.4261 61.7677C43.6141 61.8615 43.8021 62.0493 43.9901 62.1432C46.152 63.3635 48.4079 64.5838 50.5698 65.8042C50.9458 65.9919 51.3218 66.3674 51.5098 66.7429C51.6978 67.3061 51.6038 67.8693 51.0398 68.2448C50.5698 68.6203 50.0058 68.6203 49.4419 68.3387C47.5619 67.3061 45.682 66.2735 43.7081 65.2409C42.4862 64.5838 41.1702 63.8329 39.9483 63.1757C38.7263 62.5186 38.7263 61.2044 39.9483 60.5473C43.0501 58.8576 46.152 57.0741 49.2539 55.3844C50.1938 54.915 51.0398 55.1028 51.4158 55.9476C51.6978 56.6986 51.5098 57.3557 50.6638 57.7312C48.5019 58.9515 46.246 60.1718 44.0841 61.3922C43.8961 61.4861 43.7081 61.5799 43.4261 61.7677Z" fill="#0057FF"/>
<path d="M76.7007 61.7677C74.2568 60.3597 71.9069 59.1393 69.557 57.7313C69.181 57.5435 68.805 57.168 68.617 56.7925C68.429 56.3232 68.617 55.7599 68.993 55.3845C69.463 55.009 69.9329 54.9151 70.4969 55.1028C70.6849 55.1967 70.7789 55.2906 70.9669 55.3845C73.9748 57.0742 76.9827 58.7638 79.9905 60.4535C80.5545 60.7352 81.0245 61.1106 81.0245 61.8616C81.0245 62.5187 80.5545 62.9881 79.9905 63.2697C76.9827 64.9594 73.8808 66.6491 70.8729 68.3388C69.933 68.8081 69.181 68.7143 68.711 67.9633C68.241 67.1184 68.617 66.2736 69.557 65.7104C71.7189 64.49 73.8808 63.3636 76.0427 62.1432C76.2307 62.0494 76.4187 61.9555 76.7007 61.7677Z" fill="#0057FF"/>
<path d="M53.3899 69.3713C53.4839 69.2774 53.5779 68.9019 53.6719 68.6203C57.0557 63.5512 60.4396 58.3883 63.9175 53.3192C64.2934 52.756 64.7634 52.3805 65.4214 52.4743C66.0794 52.5682 66.5494 52.9437 66.5494 53.6008C66.5494 54.0702 66.4554 54.6334 66.1734 55.0089C63.0715 59.7963 59.8756 64.4899 56.6798 69.2774C56.3978 69.6529 56.1158 70.1222 55.8338 70.4977C55.4578 71.061 54.7998 71.1548 54.2359 70.9671C53.6719 70.6855 53.3899 70.2161 53.3899 69.3713Z" fill="#0057FF"/>
<path d="M46.528 38.1124C46.528 38.9575 45.7761 39.7087 44.9301 39.7087C44.0841 39.7087 43.3322 38.9575 43.3322 38.1124C43.3322 37.2673 43.9901 36.6101 44.8361 36.6101C45.7761 36.5162 46.528 37.1734 46.528 38.1124Z" fill="#062C84"/>
<path d="M41.7344 38.1124C41.7344 39.0514 41.0764 39.7087 40.1364 39.7087C39.2905 39.7087 38.5385 38.9575 38.5385 38.1124C38.5385 37.2673 39.1965 36.6101 40.0424 36.6101C40.9824 36.5162 41.7344 37.1734 41.7344 38.1124Z" fill="#062C84"/>
<path d="M36.9406 38.1125C36.9406 38.9575 36.2826 39.7087 35.4366 39.7087C34.5907 39.7087 33.8387 38.9575 33.8387 38.1125C33.8387 37.2674 34.4967 36.6101 35.4366 36.6101C36.2826 36.6101 36.9406 37.1735 36.9406 38.1125Z" fill="#062C84"/>
</g>
<defs>
<clipPath id="clip0">
<rect width="120" height="120" fill="white"/>
</clipPath>
</defs>
</svg>
