<svg width="146" height="95" viewBox="0 0 146 95" fill="none" xmlns="http://www.w3.org/2000/svg">
<path d="M117.231 0H15.6568C7.04558 0 0 7.04557 0 15.6568V70.4557C0 79.067 7.04558 86.1126 15.6568 86.1126H117.231C118.209 86.1126 119.188 86.1126 119.97 85.9169L117.426 78.2842H15.6568C11.3512 78.2842 7.82842 74.7614 7.82842 70.4557V15.6568C7.82842 11.3512 11.3512 7.82842 15.6568 7.82842H117.231C121.536 7.82842 125.059 11.3512 125.059 15.6568V60.8659L132.887 65.7587V15.6568C132.887 7.04557 125.842 0 117.231 0Z" fill="#29CCB8"/>
<path d="M146 79.8498L133.866 82.7854L128.386 94.1366L124.863 84.1554L124.08 82.394L122.123 76.5227L120.558 72.6085L116.643 61.453L125.059 66.7372L126.625 67.7157L132.887 71.6299L135.432 73.3913L146 79.8498Z" fill="#29CCB8"/>
<path d="M51.8981 19C51.8981 30.1555 51.8981 41.311 51.8981 52.4665C51.8981 52.6622 51.8981 53.0536 51.8981 53.2493C49.941 53.2493 47.9839 53.2493 46.0268 53.2493C46.0268 53.0536 46.0268 52.6622 46.0268 52.4665C46.0268 43.0724 46.0268 33.6783 46.0268 24.2842C46.0268 23.5013 46.0268 23.5013 45.244 23.5013C43.6783 23.5013 41.9169 23.5013 40.3512 23.8928C37.807 24.6756 36.0456 26.2413 35.8499 28.7855C35.4584 31.7212 36.2413 34.2654 38.5898 36.2225C40.1555 37.5925 41.9169 38.7668 43.6783 39.941C43.874 40.1367 44.0697 40.1367 44.2654 40.3324C44.0697 40.5282 44.0697 40.7239 43.874 40.9196C41.134 44.8338 38.5898 48.9437 35.8499 52.8579C35.6542 53.2493 35.2627 53.445 34.8713 53.445C33.1099 53.445 31.5442 53.445 29.7828 53.445C29.5871 53.445 29.3914 53.445 29 53.445C31.5442 49.5308 34.2842 45.8123 36.8284 41.8981C35.8499 41.1153 34.8713 40.3324 34.0885 39.5496C32.1314 37.7882 30.7614 35.6354 30.1743 33.0911C29.3914 29.3726 29.7828 26.0456 32.3271 23.1099C34.0885 21.1528 36.2413 20.1743 38.7855 19.5871C39.9598 19.3914 40.9383 19.1957 42.1126 19C45.4397 19 48.571 19 51.8981 19Z" fill="#29CCB8"/>
<path d="M104.544 51.292C104.544 51.6835 104.544 52.0749 104.544 52.4663C104.349 54.6191 103.761 56.7719 102.783 58.729C102.196 59.7076 101.609 60.6861 100.826 61.6647C99.2601 63.4261 97.303 64.796 95.1502 65.5789C93.9759 65.9703 92.8017 66.3617 91.6274 66.5574C91.0403 66.7532 90.2574 66.7532 89.6703 66.7532H88.6917C87.9089 66.7532 87.3218 66.5574 86.5389 66.5574C84.9733 66.3617 83.6033 65.7746 82.2333 65.1875C81.059 64.6003 79.8848 63.8175 78.7105 62.839C76.9491 61.469 75.7749 59.7076 74.7963 57.7505C74.6006 57.5548 74.6006 57.3591 74.4049 57.1633C73.8178 55.9891 73.622 54.8148 73.2306 53.4448C73.0349 52.2706 73.0349 51.0963 73.0349 49.9221C73.2306 47.7692 73.622 45.6164 74.6006 43.4636C75.7749 40.9194 77.732 38.7666 80.0805 37.2009C81.4505 36.2223 83.0161 35.4395 84.7775 35.0481C85.5604 34.8523 86.3432 34.6566 87.1261 34.6566C88.1046 34.4609 88.8875 34.4609 89.866 34.4609C92.0188 34.4609 93.9759 35.0481 95.933 36.0266C97.303 36.6137 98.673 37.5923 99.8472 38.5709C98.2816 40.1365 96.7159 41.7022 95.3459 43.0722C95.3459 43.0722 95.3459 43.0722 95.1502 43.0722C93.9759 42.0936 92.4103 41.3108 90.8446 41.1151C89.866 40.9194 88.6917 40.9194 87.7132 41.1151C84.3861 41.7022 81.8419 43.855 80.4719 46.7907C80.0805 47.5735 79.8848 48.5521 79.6891 49.5306C79.4934 50.9006 79.6891 52.2706 80.0805 53.6406C80.2762 53.8363 80.2762 54.2277 80.4719 54.4234C81.4505 56.7719 83.2119 58.3376 85.5604 59.3162C86.3432 59.7076 87.3218 59.9033 88.1046 59.9033C88.8875 59.9033 89.6703 59.9033 90.4531 59.9033C91.6274 59.7076 92.606 59.5119 93.5845 58.9247C94.3674 58.5333 94.9545 58.1419 95.7373 57.3591C96.5202 56.3805 97.303 55.402 97.4987 54.2277C97.4987 54.032 97.4987 53.8363 97.6944 53.6406H89.2789C89.2789 53.6406 89.0832 53.6406 89.0832 53.4448C89.0832 51.4877 89.0832 49.3349 89.0832 47.3778C89.0832 47.3778 89.0832 47.1821 89.2789 47.1821C94.1716 47.1821 99.0644 47.1821 104.153 47.1821C104.153 47.1821 104.349 47.1821 104.349 47.3778C104.349 47.965 104.544 48.3564 104.544 48.9435C104.544 49.9221 104.544 50.5092 104.544 51.292Z" fill="#29CCB8"/>
</svg>
