<svg width="146" height="95" viewBox="0 0 146 95" fill="none" xmlns="http://www.w3.org/2000/svg">
<path d="M117.231 0H15.6568C7.04558 0 0 7.04557 0 15.6568V70.4557C0 79.067 7.04558 86.1126 15.6568 86.1126H117.231C118.209 86.1126 119.188 86.1126 119.97 85.9169L117.426 78.2842H15.6568C11.3512 78.2842 7.82842 74.7614 7.82842 70.4557V15.6568C7.82842 11.3512 11.3512 7.82842 15.6568 7.82842H117.231C121.536 7.82842 125.059 11.3512 125.059 15.6568V60.8659L132.887 65.7587V15.6568C132.887 7.04557 125.842 0 117.231 0Z" fill="#29CCB8"/>
<path d="M146 79.8498L133.866 82.7854L128.386 94.1366L124.863 84.1554L124.081 82.394L122.123 76.5227L120.558 72.6085L116.644 61.453L125.059 66.7372L126.625 67.7157L132.888 71.6299L135.432 73.3913L146 79.8498Z" fill="#29CCB8"/>
<path d="M43.2896 37.4156C43.2896 39.5684 42.5068 41.7212 40.9411 43.2869C39.3754 44.8526 37.2226 45.8311 34.874 45.8311C32.5255 45.8311 30.3727 44.8526 28.807 43.2869C27.437 41.7212 26.4585 39.7641 26.4585 37.4156C26.4585 32.7185 30.177 29 34.874 29C39.5711 29 43.2896 32.7185 43.2896 37.4156Z" fill="#29CCB8"/>
<path d="M49.748 56.7907H20C20 51.7022 22.5442 47.2009 26.4584 44.4609C28.4155 46.8095 31.5469 48.3751 35.0697 48.3751C38.5925 48.3751 41.5282 46.8095 43.681 44.4609C47.3995 47.3966 49.748 51.8979 49.748 56.7907Z" fill="#29CCB8"/>
<path d="M75.1902 37.4157C75.1902 39.5685 74.4074 41.7213 72.8417 43.287C71.276 44.8527 69.1232 45.8312 66.7747 45.8312C64.4262 45.8312 62.2733 44.8527 60.7077 43.287C59.3377 41.7213 58.3591 39.7642 58.3591 37.4157C58.3591 32.7186 62.0776 29.0001 66.7747 29.0001C71.4717 29.0001 75.1902 32.7186 75.1902 37.4157Z" fill="#29CCB8"/>
<path d="M81.6489 56.7908H51.9009C51.9009 51.7024 54.4451 47.201 58.3593 44.4611C60.3164 46.8096 63.4478 48.3753 66.9706 48.3753C70.4934 48.3753 73.429 46.8096 75.5818 44.4611C79.3003 47.3967 81.6489 51.8981 81.6489 56.7908Z" fill="#29CCB8"/>
<path d="M106.895 37.4157C106.895 39.5685 106.112 41.7213 104.547 43.287C102.981 44.8527 100.828 45.8312 98.4798 45.8312C96.1312 45.8312 93.9784 44.8527 92.4127 43.287C91.0428 41.7213 90.0642 39.7642 90.0642 37.4157C90.0642 32.7186 93.7827 29.0001 98.4798 29.0001C103.177 29.0001 106.895 32.7186 106.895 37.4157Z" fill="#29CCB8"/>
<path d="M113.55 56.7908H83.606C83.606 51.7024 86.1502 47.201 90.0644 44.4611C92.0215 46.8096 95.1529 48.3753 98.6757 48.3753C102.198 48.3753 105.134 46.8096 107.287 44.4611C110.81 46.8096 113.158 50.7238 113.55 55.2251C113.55 55.8123 113.55 56.3994 113.55 56.7908Z" fill="#29CCB8"/>
</svg>
