<svg width="146" height="95" viewBox="0 0 146 95" fill="none" xmlns="http://www.w3.org/2000/svg">
<path d="M117.231 0H15.6568C7.04558 0 0 7.04557 0 15.6568V70.4557C0 79.067 7.04558 86.1126 15.6568 86.1126H117.231C118.209 86.1126 119.188 86.1126 119.97 85.9169L117.426 78.2842H15.6568C11.3512 78.2842 7.82842 74.7614 7.82842 70.4557V15.6568C7.82842 11.3512 11.3512 7.82842 15.6568 7.82842H117.231C121.536 7.82842 125.059 11.3512 125.059 15.6568V60.8659L132.887 65.7587V15.6568C132.887 7.04557 125.842 0 117.231 0Z" fill="#29CCB8"/>
<path d="M40.512 43.839C39.1421 42.469 37.3807 41.4905 35.0321 40.5119L33.2708 39.9248C31.7051 39.3377 30.5308 38.7505 29.748 38.3591C28.9651 37.772 28.7694 36.9892 28.7694 36.2063C28.7694 35.4235 29.1608 34.6406 29.9437 34.2492C30.7265 33.6621 31.7051 33.4664 32.6836 33.4664C33.6622 33.4664 34.6407 33.6621 35.4236 34.2492C36.2064 34.8363 36.5978 35.6192 36.9893 36.402L41.4906 34.4449C40.9035 32.8792 39.9249 31.5093 38.5549 30.335C37.185 29.1607 35.2279 28.5736 32.6836 28.5736C30.9222 28.5736 29.3565 28.965 27.9866 29.5522C26.6166 30.335 25.638 31.1178 24.8552 32.2921C24.0724 33.4664 23.6809 34.8363 23.6809 36.2063C23.6809 38.1634 24.2681 39.7291 25.638 41.0991C26.8123 42.469 28.378 43.2519 30.1394 44.0347L31.9008 44.6219C33.8579 45.4047 35.2279 45.9918 36.0107 46.7747C36.7935 47.3618 37.185 48.3404 37.185 49.3189C37.185 50.2975 36.7935 51.0803 36.0107 51.6674C35.2279 52.2546 34.2493 52.4503 33.075 52.4503C31.7051 52.4503 30.5308 52.0589 29.5523 51.0803C28.5737 50.2975 27.9866 49.1232 27.5952 47.5575L22.7024 49.5146C23.4852 52.0589 24.6595 54.016 26.6166 55.3859C28.5737 56.7559 30.5308 57.343 33.075 57.343C34.6407 57.343 36.2064 56.9516 37.5764 56.3645C38.9464 55.7774 40.1206 54.7988 41.0992 53.6245C42.0777 52.4503 42.4691 50.8846 42.4691 49.1232C42.2734 46.9704 41.6863 45.209 40.512 43.839Z" fill="#29CCB8"/>
<path d="M68.89 29.1609L61.6487 48.5362H61.2573L54.016 29.1609H47.3618V56.7561H52.4503V43.0563L52.2546 38.555H52.4503L59.4959 56.7561H63.6058L70.6514 38.555H71.0428L70.4556 43.252V56.9518H75.5441V29.1609H68.89Z" fill="#29CCB8"/>
<path d="M103.531 29.1609L96.2897 48.5362H95.8982L88.657 29.1609H82.0028V56.7561H87.0913V43.0563L86.6999 38.555H87.0913L94.1368 56.7561H98.2468L105.292 38.555H105.684L105.292 43.0563V56.7561H110.381V29.1609H103.531Z" fill="#29CCB8"/>
<path d="M146 79.8498L133.866 82.7854L128.386 94.1366L124.863 84.1554L124.08 82.394L122.123 76.5227L120.558 72.6085L116.643 61.453L125.059 66.7372L126.625 67.7157L132.887 71.6299L135.432 73.3913L146 79.8498Z" fill="#29CCB8"/>
</svg>
