<svg width="146" height="95" viewBox="0 0 146 95" fill="none" xmlns="http://www.w3.org/2000/svg">
<path d="M43.474 56.4782C43.2786 56.4782 42.8877 56.4782 42.6923 56.2827L22.7588 45.3389C21.7817 44.948 21 43.9709 21 42.9938C21 42.0166 21.5863 41.0395 22.5634 40.6487L42.3014 29.5094C43.6694 29.1185 45.0374 29.7048 45.4283 31.0728C45.8191 32.4408 45.2328 33.8087 43.8649 34.1996L28.6216 42.9938L44.2557 51.7879C45.6237 52.1788 46.21 53.5468 45.8191 54.9148C45.4283 55.8919 44.4511 56.4782 43.474 56.4782Z" fill="#29CCB8"/>
<path d="M88.0311 56.4782C88.2266 56.4782 88.6174 56.4782 88.8128 56.2827L108.746 45.3389C109.723 44.948 110.505 43.9709 110.505 42.9938C110.505 42.0166 109.919 41.0395 108.942 40.6487L89.2037 29.5094C87.8357 29.1185 86.4677 29.7048 86.0769 31.0728C85.686 32.4408 86.2723 33.8087 87.6403 34.1996L103.274 42.9938L87.6403 51.7879C86.2723 52.1788 85.686 53.5468 86.0769 54.9148C85.8814 55.8919 86.8586 56.4782 88.0311 56.4782Z" fill="#29CCB8"/>
<path d="M57.9355 56.4782C57.5447 56.4782 57.1538 56.2827 56.763 56.0873C55.7859 55.501 55.5904 54.3285 56.1767 53.3513L71.6154 30.2911C72.2016 29.3139 73.3742 29.1185 74.3513 29.7048C75.3285 30.2911 75.5239 31.4636 74.9376 32.4407L59.4989 55.501C59.3035 56.0873 58.5218 56.4782 57.9355 56.4782Z" fill="#29CCB8"/>
<path d="M117.231 0H15.6568C7.04558 0 0 7.04557 0 15.6568V70.4557C0 79.067 7.04558 86.1126 15.6568 86.1126H117.231C118.209 86.1126 119.188 86.1126 119.97 85.9169L117.426 78.2842H15.6568C11.3512 78.2842 7.82842 74.7614 7.82842 70.4557V15.6568C7.82842 11.3512 11.3512 7.82842 15.6568 7.82842H117.231C121.536 7.82842 125.059 11.3512 125.059 15.6568V60.8659L132.887 65.7587V15.6568C132.887 7.04557 125.842 0 117.231 0Z" fill="#29CCB8"/>
<path d="M146 79.8498L133.866 82.7854L128.386 94.1366L124.863 84.1554L124.08 82.394L122.123 76.5227L120.558 72.6085L116.643 61.453L125.059 66.7372L126.625 67.7157L132.887 71.6299L135.432 73.3913L146 79.8498Z" fill="#29CCB8"/>
</svg>
