<svg width="120" height="120" viewBox="0 0 120 120" fill="none" xmlns="http://www.w3.org/2000/svg">
<g clip-path="url(#clip0)">
<path d="M0 56.9013C0.0938967 55.6807 0.28169 54.46 0.375587 53.2394C1.40845 43.9436 4.41315 35.3051 9.57746 27.5117C18.4038 14.0844 30.7042 5.35205 46.385 1.59618C52.5822 0.0938316 58.9671 -0.281755 65.3521 0.281625C90.3286 2.53515 111.174 19.906 117.84 43.8497C124.038 66.291 116.901 90.0469 99.3427 105.258C90.7981 112.676 80.8451 117.371 69.6713 119.155C67.6995 119.437 65.6338 119.624 63.5681 119.812C63.3803 119.812 63.0986 119.906 62.9108 119.906C60.939 119.906 58.9671 119.906 57.0892 119.906C56.8075 119.906 56.6197 119.812 56.338 119.812C52.9577 119.624 49.6714 119.155 46.385 118.404C30.7042 114.648 18.4038 106.009 9.57746 92.4882C4.41315 84.6948 1.40845 76.0563 0.375587 66.7605C0.28169 65.5398 0.0938967 64.3192 0 63.0985C0 61.0328 0 58.9671 0 56.9013ZM115.211 59.9999C115.211 29.6713 90.4225 4.88256 60.0939 4.78867C29.5775 4.78867 4.78873 29.4835 4.78873 59.9999C4.78873 90.4225 29.5775 115.211 60 115.211C90.4225 115.211 115.211 90.4225 115.211 59.9999Z" fill="#062C84"/>
<path d="M88.3568 78.4976C86.9484 77.6525 85.5399 76.8074 84.1315 75.8685C88.5446 68.7323 89.8592 61.1267 87.7935 53.0516C86.1972 46.7605 82.723 41.6901 77.5587 37.7464C67.2301 29.8591 52.8639 30.0469 42.6291 38.2159C32.3944 46.291 29.0141 60.0938 34.3662 71.9248C36.3381 76.3379 39.2489 80.0938 43.1925 83.0046C47.0423 85.9154 51.3615 87.7934 56.1503 88.5445C60.939 89.2957 65.6338 88.8262 70.2348 87.1361C70.7982 88.7323 71.3615 90.2347 71.9249 91.737C62.0658 96.0563 44.5071 95.0234 33.5212 80.5633C22.9108 66.6666 24.9766 46.7605 38.0282 35.3051C51.4554 23.568 71.2676 24.1314 83.8498 36.5257C96.6198 49.1079 96.0564 67.5117 88.3568 78.4976Z" fill="#062C84"/>
<path d="M77.5588 71.5492C76.6198 70.9859 75.6808 70.4225 74.7419 69.8591C77.7466 65.0704 78.4038 60.0938 76.6198 54.7417C75.3991 50.9859 73.0517 47.9812 69.6714 45.8215C62.9109 41.4084 54.0846 42.2535 48.263 47.7934C42.5353 53.3333 41.3146 62.0657 45.3522 69.014C49.2959 75.8685 58.0282 79.5305 66.1973 76.4319C66.5729 77.4647 66.8545 78.4976 67.324 79.6244C64.601 80.7511 61.6902 81.1267 58.6855 80.845C53.3334 80.5633 48.7325 78.3098 45.0705 74.1783C37.6527 65.9154 38.0282 53.5211 45.7278 45.7276C53.5212 37.9342 65.9156 37.5586 74.1785 44.9765C82.4414 52.3943 82.817 64.1314 77.5588 71.5492Z" fill="#062C84"/>
<path d="M67.0423 68.8262C77.1831 75.1173 87.3239 81.5022 97.5587 87.8872C96.0563 88.2628 94.6479 88.6384 93.2394 88.9201C90.6103 89.5773 88.0751 90.1407 85.446 90.798C85.0704 90.8919 84.7887 91.0797 84.6009 91.4553C82.9108 94.9295 81.2207 98.3097 79.5305 101.784C79.4366 101.972 79.2488 102.253 79.1549 102.535C75.1174 91.2675 70.9859 80.0938 66.9484 68.8262C66.9484 68.9201 67.0423 68.8262 67.0423 68.8262Z" fill="#FF488A"/>
<path d="M53.9906 60.2816C53.9906 56.8074 56.8075 53.9905 60.2817 53.9905C63.7559 53.9905 66.5728 56.8074 66.5728 60.2816C66.5728 63.7557 63.7559 66.5726 60.1878 66.5726C56.8075 66.6665 53.9906 63.8496 53.9906 60.2816Z" fill="#062C84"/>
</g>
<defs>
<clipPath id="clip0">
<rect width="120" height="120" fill="white"/>
</clipPath>
</defs>
</svg>
