<svg width="1271" height="1378" viewBox="0 0 1271 1378" fill="none" xmlns="http://www.w3.org/2000/svg">
<path d="M1072.48 226.92C864.434 -34.4104 484.694 -76.0718 225.267 133.497C-34.1599 343.066 -75.5177 725.593 132.525 986.923C295.45 1191.44 562.396 1260.88 794.251 1182.61L729.081 999.548C572.423 1051.31 393.205 1003.34 282.917 865.727C141.298 687.719 168.87 428.914 345.581 286.256C522.292 143.597 779.212 172.634 920.831 349.379C1029.87 486.987 1038.64 673.832 954.67 816.491L1118.85 920.013C1245.43 707.919 1235.4 430.176 1072.48 226.92Z" fill="white"/>
<path d="M1271 1111.94L1043.88 1167.16L941.544 1378L862.924 1157.12L798.031 973.887L723.155 765.556L909.098 883.527L1073.83 986.437L1271 1111.94Z" fill="white"/>
</svg>
