<svg width="252" height="44" viewBox="0 0 252 44" fill="none" xmlns="http://www.w3.org/2000/svg">
<path fill-rule="evenodd" clip-rule="evenodd" d="M147.027 30.957C145.792 35.6267 141.611 39.0887 136.593 39.1692C136.553 39.1692 136.473 39.1692 136.434 39.1692C136.394 39.1692 136.314 39.1692 136.274 39.1692C134.602 39.129 133.009 38.7264 131.575 38.0421C128.19 36.3513 125.801 32.9295 125.522 28.9442C125.522 28.7026 125.482 28.4208 125.482 28.1793C125.482 28.2598 125.482 28.3403 125.482 28.4208V3.70355H131.575V11.5938H141.292V17.753H131.575V28.0585C131.575 30.7154 133.646 32.8893 136.235 32.9698C136.314 32.9698 136.354 32.9698 136.434 32.9698C136.473 32.9698 136.553 32.9698 136.633 32.9698C138.704 32.8893 140.456 31.4803 141.093 29.548L141.77 29.709L145.991 30.6752L147.027 30.957Z" fill="#fff"/>
<path d="M212.416 10.1446V38.3239H218.509V10.1446H212.416Z" fill="#fff"/>
<path d="M215.442 7.72919C217.554 7.72919 219.265 5.99895 219.265 3.86459C219.265 1.73024 217.554 0 215.442 0C213.331 0 211.619 1.73024 211.619 3.86459C211.619 5.99895 213.331 7.72919 215.442 7.72919Z" fill="#29CCB8"/>
<path d="M237.624 10.1446C229.699 10.1446 223.288 16.5855 223.248 24.5965V24.7978C223.288 32.7685 229.699 39.2498 237.624 39.2498C245.549 39.2498 252 32.7283 252 24.7173C252 16.6661 245.549 10.1446 237.624 10.1446ZM237.624 33.0503C233.044 33.0503 229.341 29.3065 229.341 24.677C229.341 20.0476 233.044 16.3038 237.624 16.3038C242.204 16.3038 245.907 20.0476 245.907 24.677C245.907 29.3065 242.164 33.0503 237.624 33.0503Z" fill="#fff"/>
<path d="M200.907 0V12.8015C198.558 11.151 195.73 10.1446 192.624 10.1446C184.699 10.1446 178.288 16.5855 178.248 24.5563V24.7575C178.288 32.7283 184.699 39.2095 192.624 39.2095C195.69 39.2095 198.558 38.2434 200.907 36.5526V38.3239H207V24.7173V24.6368V0H200.907ZM192.584 33.0503C188.004 33.0503 184.301 29.3065 184.301 24.677C184.301 20.0476 188.004 16.3037 192.584 16.3037C197.164 16.3037 200.867 20.0476 200.867 24.677V24.7173C200.867 29.3065 197.164 33.0503 192.584 33.0503Z" fill="#fff"/>
<path d="M174.823 11.0302V26.4483C174.823 33.4529 169.208 39.1693 162.239 39.1693C155.27 39.1693 149.655 33.4932 149.655 26.4483V11.0302H155.748V26.4483C155.748 30.0714 158.655 33.0101 162.239 33.0101C165.823 33.0101 168.73 30.0714 168.73 26.4483V11.0302H174.823Z" fill="#fff"/>
<path d="M25.6858 31.8829V38.0421H4.18142C1.87168 38.0421 0 36.15 0 33.8152C0 32.5672 0.517699 31.4803 1.35398 30.6752C1.39381 30.6349 1.43363 30.5947 1.51327 30.5544L8.60177 24.3952L16.0885 17.8737L16.9248 17.1491C17.0044 17.0686 17.0841 16.9881 17.1637 16.9076C18.7566 15.2168 19.354 12.6807 18.4779 10.3458C18.4381 10.2653 18.3982 10.1445 18.3584 10.064C18.3186 9.98352 18.2788 9.86276 18.2389 9.74199C18.1991 9.66148 18.1593 9.58096 18.1195 9.50045C18.0398 9.41994 18 9.29917 17.9204 9.21866C17.8805 9.13814 17.8407 9.09789 17.8009 9.05763C17.7212 8.93686 17.6416 8.85635 17.5619 8.73558C17.5221 8.69533 17.5221 8.65507 17.4823 8.65507C17.4425 8.57456 17.4027 8.5343 17.323 8.45379C17.2832 8.37328 17.2035 8.33302 17.1637 8.25251C17.1239 8.21225 17.0841 8.172 17.0442 8.13174C17.0044 8.09148 17.0044 8.09148 16.9646 8.05123C16.9248 8.01097 16.885 7.97072 16.8451 7.93046C16.8053 7.8902 16.7257 7.84995 16.6858 7.76943C16.646 7.72918 16.5664 7.68892 16.5266 7.64867C16.4867 7.60841 16.4071 7.56815 16.3673 7.5279C16.2478 7.44739 16.0885 7.32662 15.9292 7.2461C15.9292 7.2461 15.8894 7.2461 15.8894 7.20585C15.8894 7.20585 15.8894 7.20585 15.8496 7.20585C15.8496 7.20585 15.8496 7.20585 15.8097 7.20585C15.7699 7.16559 15.6903 7.12534 15.6504 7.12534C15.5708 7.08508 15.4513 7.04482 15.3717 6.96431C15.3319 6.96431 15.292 6.92406 15.2522 6.92406H15.2124C15.1327 6.8838 15.0531 6.8838 15.0133 6.84354C14.9336 6.80329 14.854 6.76303 14.7743 6.76303C14.6947 6.72277 14.615 6.72277 14.5752 6.68252C14.4956 6.68252 14.4159 6.64226 14.3363 6.64226C14.2965 6.64226 14.2168 6.60201 14.177 6.60201C14.177 6.60201 14.177 6.60201 14.1372 6.60201C14.0973 6.60201 14.0177 6.56175 13.9779 6.56175C13.8982 6.56175 13.8186 6.52149 13.7389 6.52149C13.6593 6.52149 13.6195 6.52149 13.5398 6.48124C13.5 6.48124 13.5 6.48124 13.4602 6.48124C13.4204 6.48124 13.4204 6.48124 13.3805 6.48124C13.3805 6.48124 13.3805 6.48124 13.3407 6.48124H13.3009C13.2212 6.48124 13.1018 6.48124 13.0221 6.44098C12.9027 6.44098 12.823 6.44098 12.7035 6.44098C12.5841 6.44098 12.5044 6.44098 12.385 6.44098C12.3053 6.44098 12.2257 6.44098 12.1062 6.44098C12.0664 6.44098 12.0266 6.44098 11.9867 6.44098C11.8673 6.44098 11.7478 6.48124 11.6283 6.48124C11.5885 6.48124 11.5089 6.48124 11.469 6.52149C11.4292 6.52149 11.3496 6.56175 11.3097 6.56175C11.2301 6.56175 11.1504 6.60201 11.0708 6.60201C11.031 6.60201 10.9513 6.64226 10.8717 6.64226C10.8319 6.64226 10.8319 6.64226 10.792 6.68252C10.7522 6.68252 10.7522 6.68252 10.7124 6.72277C10.6726 6.72277 10.6327 6.76303 10.5929 6.76303C10.5531 6.76303 10.5133 6.80329 10.4735 6.80329C10.3938 6.84354 10.354 6.84354 10.2743 6.8838C10.2743 6.8838 10.2345 6.8838 10.2345 6.92406C10.1549 6.96431 10.115 6.96431 10.0354 7.00457C9.75664 7.12534 9.5177 7.28636 9.27876 7.44739C9.27876 7.44739 9.23894 7.44739 9.23894 7.48764C9.19912 7.5279 9.15929 7.56815 9.11947 7.56815L9.07965 7.60841C9 7.68892 8.88053 7.72918 8.80089 7.80969L8.76106 7.84995C8.72124 7.84995 8.72124 7.8902 8.72124 7.8902C8.72124 7.8902 8.68142 7.8902 8.68142 7.93046C8.64159 7.97072 8.64159 7.97072 8.60177 8.01097C8.56195 8.05123 8.52212 8.09148 8.4823 8.13174L8.36283 8.172C8.28319 8.25251 8.24336 8.29276 8.16372 8.37328C8.12389 8.41353 8.12389 8.45379 8.08407 8.45379C8.00443 8.5343 7.9646 8.61481 7.88496 8.69533C7.84513 8.73558 7.80531 8.77584 7.80531 8.8161C7.80531 8.8161 7.80531 8.8161 7.80531 8.85635C7.80531 8.85635 7.80531 8.89661 7.76549 8.89661C7.72566 8.93686 7.72566 8.97712 7.68584 9.01738L7.64602 9.05763L7.6062 9.09789C7.56637 9.13814 7.56637 9.1784 7.52655 9.21866C7.48673 9.25891 7.48673 9.29917 7.4469 9.33943C7.40708 9.37968 7.40708 9.41994 7.36726 9.46019C7.32743 9.50045 7.28761 9.58096 7.28761 9.62122C7.28761 9.66147 7.24779 9.66148 7.24779 9.70173C7.24779 9.70173 7.24779 9.70173 7.24779 9.74199C7.24779 9.74199 7.24779 9.74199 7.20797 9.78224L7.16814 9.8225C7.16814 9.8225 7.12832 9.86276 7.12832 9.90301C7.0885 9.98352 7.04867 10.1043 7.00885 10.1848C6.84956 10.5874 6.69027 10.9899 6.61062 11.3925V11.4327C6.53097 11.8353 6.49115 12.2781 6.49115 12.7209C6.49115 12.8015 6.49115 12.9222 6.49115 13.0027C6.49115 13.204 6.53097 13.365 6.53097 13.5663C6.53097 13.6468 6.5708 13.7676 6.5708 13.8481L0.676991 15.4986C0.477876 14.5727 0.358407 13.6066 0.358407 12.6404C0.358407 10.1848 1.0354 7.93046 2.23009 5.99816C2.30973 5.87739 2.38938 5.75663 2.46903 5.63586C2.54867 5.51509 2.62832 5.39432 2.70796 5.27355C2.86726 5.07227 3.02655 4.87099 3.18584 4.66971C3.22566 4.5892 3.30531 4.50868 3.38496 4.42817C3.70354 4.06587 4.06195 3.70356 4.42035 3.34126C4.65929 3.13997 4.85841 2.93869 5.09735 2.77767C5.29646 2.61664 5.57522 2.41536 5.81416 2.25434C5.89381 2.21408 5.97345 2.13357 6.0531 2.09331C6.21239 1.97255 6.37168 1.89203 6.5708 1.77126C6.65044 1.73101 6.73009 1.69075 6.84956 1.61024C6.9292 1.56998 7.00885 1.52973 7.12832 1.48947C7.20797 1.44922 7.28761 1.40896 7.40708 1.3687C7.6062 1.28819 7.76549 1.20768 7.9646 1.12717C8.16372 1.04665 8.32301 0.966141 8.52212 0.925885C8.56195 0.845373 8.64159 0.805116 8.76106 0.76486C8.96018 0.684348 9.15929 0.644092 9.35841 0.563579C9.43805 0.523323 9.55752 0.523323 9.63717 0.483067C9.83628 0.442811 10.0354 0.402555 10.2345 0.322042C10.3142 0.322042 10.4336 0.281786 10.5531 0.281786C11.0708 0.201274 11.6283 0.120762 12.146 0.0805054C12.2257 0.0805054 12.2655 0.0805054 12.3451 0.0805054C12.4646 0.0805054 12.5841 0.0805054 12.7035 0.0805054C13.1416 0.0805054 13.5398 0.0805054 13.9779 0.161018C14.177 0.161018 14.3761 0.201274 14.5752 0.24153C14.6549 0.24153 14.7345 0.281786 14.8142 0.281786C14.854 0.281786 14.854 0.281786 14.8938 0.281786C15.0929 0.322042 15.292 0.362299 15.4513 0.402555C15.4513 0.402555 15.4513 0.402555 15.4912 0.402555C15.6106 0.442811 15.7301 0.483067 15.8894 0.483067C16.0885 0.523323 16.2478 0.603836 16.4469 0.644092C16.646 0.724604 16.8053 0.76486 17.0044 0.845373C17.1637 0.925885 17.323 0.966141 17.4823 1.04665C17.7611 1.16742 18.0398 1.28819 18.3186 1.44922C18.4381 1.52973 18.5575 1.56998 18.677 1.6505C18.9159 1.77126 19.1549 1.93229 19.3938 2.05306C22.7788 4.26715 25.0487 8.13174 25.0487 12.5599C25.0487 13.0027 25.0089 13.4858 24.969 13.9286C24.6903 16.4245 23.6947 18.7191 22.2212 20.5306L20.5885 22.1811L19.4735 23.0668L8.64159 31.8829H25.6858Z" fill="#fff"/>
<path d="M54.5177 31.8829V38.0421H33.0531C30.7434 38.0421 28.8717 36.15 28.8717 33.8152C28.8717 32.5672 29.3894 31.4803 30.2257 30.6752C30.2655 30.6349 30.3053 30.5947 30.385 30.5544L37.4336 24.3952L44.9204 17.8737L45.7566 17.1491C45.8363 17.0686 45.9159 16.9881 45.9956 16.9076C47.5885 15.2168 48.1858 12.6807 47.3097 10.3458C47.2699 10.2653 47.2301 10.1445 47.1903 10.064C47.1504 9.98352 47.1106 9.86276 47.0708 9.74199C47.031 9.66148 46.9911 9.58096 46.9513 9.50045C46.8717 9.41994 46.8319 9.29917 46.7522 9.21866C46.7124 9.13814 46.6726 9.09789 46.6327 9.05763C46.5531 8.93686 46.4734 8.85635 46.3938 8.73558C46.354 8.69533 46.354 8.65507 46.3142 8.65507C46.2743 8.57456 46.2345 8.5343 46.1549 8.45379C46.115 8.37328 46.0354 8.33302 45.9956 8.25251C45.9557 8.21225 45.9159 8.172 45.8761 8.13174C45.8363 8.09148 45.8363 8.09148 45.7965 8.05123L45.7566 8.01097C45.7168 7.97072 45.677 7.93046 45.6372 7.8902C45.5973 7.84995 45.5177 7.80969 45.4779 7.72918C45.438 7.68892 45.3584 7.64867 45.3186 7.60841C45.2788 7.56815 45.1991 7.5279 45.1593 7.48764C45.0398 7.40713 44.8805 7.28636 44.7212 7.20585C44.7212 7.20585 44.6814 7.20585 44.6814 7.16559C44.6814 7.16559 44.6814 7.16559 44.6416 7.16559C44.6416 7.16559 44.6416 7.16559 44.6018 7.16559C44.5619 7.12534 44.4823 7.08508 44.4425 7.08508C44.3628 7.04482 44.2434 7.00457 44.1637 6.92406C44.1239 6.92406 44.0841 6.8838 44.0442 6.8838H44.0044C43.9248 6.84354 43.8451 6.84354 43.8053 6.80329C43.7257 6.76303 43.646 6.72277 43.5664 6.72277C43.4867 6.68252 43.4071 6.68252 43.3673 6.64226C43.2876 6.64226 43.208 6.60201 43.1283 6.60201C43.0885 6.60201 43.0088 6.56175 42.969 6.56175C42.969 6.56175 42.969 6.56175 42.9292 6.56175C42.8894 6.56175 42.8097 6.52149 42.7699 6.52149C42.6903 6.52149 42.6106 6.48124 42.531 6.48124C42.4513 6.48124 42.4115 6.48124 42.3319 6.44098C42.292 6.44098 42.292 6.44098 42.2522 6.44098C42.2124 6.44098 42.2124 6.44098 42.1726 6.44098C42.1726 6.44098 42.1726 6.44098 42.1327 6.44098H42.0929C42.0133 6.44098 41.8938 6.44098 41.8142 6.40072C41.6947 6.40072 41.615 6.40072 41.4956 6.40072C41.3761 6.40072 41.2965 6.40072 41.177 6.40072C41.0973 6.40072 41.0177 6.40072 40.8982 6.40072C40.8584 6.40072 40.8186 6.40072 40.7788 6.40072C40.6593 6.40072 40.5398 6.44098 40.4204 6.44098C40.3805 6.44098 40.3009 6.44098 40.2611 6.48124C40.2212 6.48124 40.1416 6.52149 40.1018 6.52149C40.0221 6.52149 39.9425 6.56175 39.8628 6.56175C39.823 6.56175 39.7434 6.60201 39.6637 6.60201C39.6239 6.60201 39.6239 6.60201 39.5841 6.64226C39.5442 6.64226 39.5442 6.64226 39.5044 6.68252C39.4646 6.68252 39.4248 6.72277 39.385 6.72277C39.3451 6.72277 39.3053 6.76303 39.2655 6.76303C39.1858 6.80329 39.146 6.80329 39.0664 6.84354C39.0664 6.84354 39.0265 6.84354 39.0265 6.8838C38.9469 6.92406 38.9071 6.92405 38.8274 6.96431C38.5487 7.08508 38.3097 7.2461 38.0708 7.40713C38.0708 7.40713 38.031 7.40713 38.031 7.44739C37.9911 7.48764 37.9513 7.5279 37.9115 7.5279L37.8717 7.56815C37.792 7.64867 37.6726 7.68892 37.5929 7.76943L37.5531 7.80969C37.5133 7.80969 37.5133 7.84995 37.5133 7.84995C37.5133 7.84995 37.4734 7.84995 37.4734 7.8902C37.4336 7.93046 37.4336 7.93046 37.3938 7.97072C37.354 8.01097 37.3142 8.05123 37.2743 8.09148L37.2345 8.13174C37.1549 8.21225 37.115 8.25251 37.0354 8.33302C36.9956 8.37328 36.9956 8.41353 36.9558 8.41353C36.8761 8.49405 36.8363 8.57456 36.7566 8.65507C36.7168 8.69533 36.677 8.73558 36.677 8.77584C36.677 8.77584 36.677 8.77584 36.677 8.8161C36.677 8.8161 36.677 8.85635 36.6372 8.85635C36.5973 8.89661 36.5973 8.93686 36.5575 8.97712L36.5177 9.01738L36.4779 9.05763C36.4381 9.09789 36.4381 9.13814 36.3982 9.1784C36.3584 9.21866 36.3584 9.25891 36.3186 9.29917C36.2788 9.33943 36.2788 9.37968 36.2389 9.41994C36.1991 9.46019 36.1593 9.54071 36.1593 9.58096C36.1593 9.62122 36.1195 9.62122 36.1195 9.66148C36.1195 9.66148 36.1195 9.66148 36.1195 9.70173C36.1195 9.70173 36.1195 9.70173 36.0796 9.74199L36.0398 9.78224C36.0398 9.78224 36 9.8225 36 9.86276C35.9602 9.94327 35.9204 10.064 35.8805 10.1445C35.7212 10.5471 35.5619 10.9497 35.4823 11.3522V11.3925C35.4027 11.7951 35.3628 12.2379 35.3628 12.6807C35.3628 12.7612 35.3628 12.882 35.3628 12.9625C35.3628 13.1638 35.4027 13.3248 35.4027 13.5261C35.4027 13.6066 35.4425 13.7273 35.4425 13.8079L29.5088 15.5791C29.3097 14.6532 29.1903 13.6871 29.1903 12.7209C29.1903 10.2653 29.8673 8.01097 31.0619 6.07868C31.1416 5.95791 31.2212 5.83714 31.3009 5.71637C31.3805 5.5956 31.4602 5.47483 31.5398 5.35406C31.6991 5.15278 31.8584 4.9515 32.0177 4.75022C32.0575 4.66971 32.1372 4.5892 32.2168 4.50868C32.5354 4.14638 32.8938 3.78407 33.2522 3.42177C33.4911 3.22049 33.6903 3.01921 33.9292 2.85818C34.1681 2.61664 34.4071 2.41536 34.646 2.25434C34.7257 2.21408 34.8053 2.13357 34.885 2.09331C35.0442 1.97255 35.2035 1.89203 35.4027 1.77126C35.4823 1.73101 35.5619 1.69075 35.6814 1.61024C35.7611 1.56998 35.8407 1.52973 35.9602 1.48947C36.0398 1.44922 36.1195 1.40896 36.2389 1.3687C36.4381 1.28819 36.5973 1.20768 36.7965 1.12717C36.9956 1.04665 37.1549 0.966141 37.354 0.925885C37.4336 0.845373 37.5133 0.805116 37.5929 0.76486C37.792 0.684348 37.9911 0.644092 38.1903 0.563579C38.2699 0.523323 38.3894 0.523323 38.469 0.483067C38.6681 0.442811 38.8673 0.402555 39.0664 0.322042C39.146 0.322042 39.2655 0.281786 39.385 0.281786C39.9027 0.201274 40.4602 0.120762 40.9779 0.0805054C41.0575 0.0805054 41.0973 0.0805054 41.177 0.0805054C41.2965 0.0805054 41.4159 0.0805054 41.5354 0.0805054C41.9735 0.0805054 42.3717 0.0805054 42.8097 0.161018C43.0088 0.161018 43.208 0.201274 43.4071 0.24153C43.4867 0.24153 43.5664 0.281786 43.646 0.281786C43.6858 0.281786 43.6858 0.281786 43.7257 0.281786C43.9248 0.322042 44.1239 0.362299 44.2832 0.402555C44.2832 0.402555 44.2832 0.402555 44.323 0.402555C44.4425 0.442811 44.5619 0.483067 44.7212 0.483067C44.9204 0.523323 45.0796 0.603836 45.2788 0.644092C45.4779 0.724604 45.6372 0.76486 45.8363 0.845373C45.9956 0.925885 46.1549 0.966141 46.3142 1.04665C46.5929 1.16742 46.8717 1.28819 47.1504 1.44922C47.2699 1.52973 47.3894 1.56998 47.5088 1.6505C47.7478 1.77126 47.9867 1.93229 48.2257 2.05306C51.6106 4.26715 53.8805 8.13174 53.8805 12.5599C53.8805 13.0027 53.8407 13.4858 53.8009 13.9286C53.5221 16.4245 52.5265 18.7191 51.0531 20.5306L49.4204 22.1811L48.3053 23.0668L37.4734 31.8829H54.5177Z" fill="#fff"/>
<path d="M90.9956 7.36689C84.385 -0.966141 72.3186 -2.29459 64.0752 4.38793C55.8319 11.0705 54.5177 23.2681 61.1283 31.6011C66.3053 38.1226 74.7876 40.3367 82.1549 37.8408L80.0841 32.0037C75.1062 33.6542 69.4115 32.1244 65.9071 27.7365C61.4071 22.0604 62.2832 13.8079 67.8982 9.25893C73.5133 4.70998 81.677 5.63587 86.177 11.2717C89.6416 15.6597 89.9204 21.6176 87.2522 26.1665L92.469 29.4675C96.4912 22.7045 96.1726 13.8481 90.9956 7.36689Z" fill="#fff"/>
<path d="M121.659 30.5545C121.659 35.3852 117.199 39.1693 110.549 39.1693C107.283 39.1693 104.336 38.2836 102.226 36.7539C101.111 35.989 100.195 35.0229 99.5974 33.9762C99.5177 33.8555 99.4381 33.7347 99.3982 33.6139L104.934 31.0375C105.531 31.8426 107.482 33.0101 110.549 33.0101C114.332 33.0101 115.566 31.2791 115.566 30.5545C115.566 29.4273 113.217 28.5416 112.46 28.1793C108.08 26.2068 100.553 25.2004 99.8761 19.1217C99.5974 16.3843 100.991 13.6871 103.181 12.1171C105.292 10.5874 107.96 10.0641 110.509 10.0641C115.128 10.0641 119.031 11.8756 121.022 14.5727L115.965 18.0348C115.208 17.2297 113.376 16.2635 110.509 16.2635C106.726 16.2635 105.889 17.9945 105.889 18.7191C105.889 19.6048 107.403 20.0476 108 20.2891C112.221 22.0604 117.319 22.6642 120.305 26.5691C120.465 26.7704 120.624 27.0119 120.783 27.2534C121.381 28.0586 121.659 29.4273 121.659 30.5545Z" fill="#fff"/>
<path d="M97.4071 35.4657L90.1593 37.237L86.8938 44L84.3849 36.9149L82.3141 31.0375L79.9248 24.355L85.8584 28.1391L91.115 31.4401L97.4071 35.4657Z" fill="#29CCB8"/>
</svg>
