<svg width="30" height="30" viewBox="0 0 40 38" fill="none" xmlns="http://www.w3.org/2000/svg">
<path d="M19.0004 0.615969C19.3419 -0.205323 20.5054 -0.205323 20.847 0.61597L25.6404 12.1408C25.7844 12.487 26.1101 12.7236 26.4838 12.7536L38.9258 13.751C39.8125 13.8221 40.172 14.9286 39.4965 15.5073L30.017 23.6275C29.7322 23.8714 29.6078 24.2542 29.6948 24.619L32.591 36.7603C32.7974 37.6255 31.8561 38.3093 31.097 37.8457L20.4449 31.3394C20.1249 31.144 19.7224 31.144 19.4024 31.3394L8.75033 37.8457C7.99123 38.3093 7.04998 37.6255 7.25637 36.7603L10.1525 24.619C10.2395 24.2542 10.1151 23.8714 9.83035 23.6275L0.350859 15.5073C-0.324678 14.9286 0.0348484 13.8221 0.921503 13.751L13.3635 12.7536C13.7373 12.7236 14.0629 12.487 14.2069 12.1408L19.0004 0.615969Z" fill="white"/>
</svg>
