<svg width="120" height="120" viewBox="0 0 120 120" fill="none" xmlns="http://www.w3.org/2000/svg">
<g clip-path="url(#clip0)">
<path d="M119.9 56.5C119.6 54 119.4 51.3 119 48.8C116.4 35.1 109.8 23.5 99.2 14.5C86.4 3.60001 71.4 -1.09999 54.6 0.20001C47.8 0.80001 41.3 2.50001 35.1 5.40001C15.7 14.3 2.1 33.2 0.299998 54.7C-0.300002 61 0.0999975 67.3 1.6 73.5C5.7 90.3 15.2 103.1 30.1 111.9C37.3 116.2 45.1 118.7 53.5 119.6C54.7 119.7 56 119.9 57.3 120H63C64.2 119.9 65.5 119.7 66.8 119.6C76.7 118.5 85.8 115.2 93.9 109.6C106.7 100.8 114.8 88.7 118.5 73.6C119.3 70.3 119.7 67 119.9 63.6C119.9 63.3 120 63.1 120 62.8V57C120 56.9 119.9 56.7 119.9 56.5ZM60.1 115.2C29.6 115.2 4.9 90.4 4.9 60C4.9 29.5 29.6 4.80001 60.2 4.80001C90.5 4.80001 115.3 29.7 115.3 60.1C115.3 90.5 90.5 115.3 60.1 115.2Z" fill="#062C84"/>
<path d="M81.6 36.5C71.1 26.7 54.6 26.5 43.6 35.9C31.9 45.9 30 64.2 40.4 76.3C35.9 80.8 31.4 85.4 26.8 89.8C27.9 90.9 29 92 30.2 93.2999C34.7 88.7 39.2 84.0999 43.7 79.5C57.9 91.6 77.6 86.1 85.7 74.4C93.7 62.7999 92.8 47 81.6 36.5ZM62.3 82C48.9 82 38 71.1 38 57.7C38 44.3 48.9 33.5 62.2 33.5C75.6 33.5 86.4 44.4 86.4 57.7C86.5 71.1 75.7 82 62.3 82Z" fill="#062C84"/>
<path d="M83.7 57.7C83.7 59 83.6 60.3 83.4 61.5H56.3C54.9 61.5 54.1 60.8 54.1 59.4C54.1 57.6 54.2 55.8 54.1 54C54 52.2 55.1 51.6 56.4 51.6H82.8C83.5 53.6 83.7 55.6 83.7 57.7Z" fill="#04B2D8"/>
<path d="M81.6 66.9C79.6 71.1 76.2 74.5 72.1 76.7H56.4C54.8 76.7 54.1 76 54.1 74.4V69.2C54.1 67.4 54.7 66.8 56.4 66.8H81.6V66.9Z" fill="#04B2D8"/>
<path d="M52.4 44.1C48.6 44.1 45.6 46.6 44.7 50.2C44.5 50.9 44.5 51.6 44.5 52.3V69.9C45.6 71.5 47 72.9 48.5 74.2V52C48.5 49.7 50.1 48.1 52.5 48.1H81.5C80.8 46.7 79.9 45.4 78.9 44.1H52.4Z" fill="#04B2D8"/>
</g>
<defs>
<clipPath id="clip0">
<rect width="120" height="120" fill="white"/>
</clipPath>
</defs>
</svg>
