<svg width="32" height="32" viewBox="0 0 32 32" fill="none" xmlns="http://www.w3.org/2000/svg">
<path d="M26 0H6C2.68741 0 0 2.68741 0 6V25.997C0 29.3126 2.68741 32 6 32H25.997C29.3126 32 31.997 29.3126 31.997 26V6C32 2.68741 29.3126 0 26 0ZM29.3956 25.8756C29.3956 27.8193 27.8222 29.3926 25.8785 29.3926H19.917V16.7704H24.0178V13.5022H19.917V12.317C19.917 10.3111 20.6637 9.30667 22.163 9.30667C22.5244 9.30667 22.9244 9.36593 23.363 9.48444C23.8015 9.60296 24.1807 9.74518 24.5037 9.91704L25.363 6.67852C23.9763 6.01778 22.5956 5.68593 21.2296 5.68593C19.5022 5.68593 18.1333 6.29333 17.1289 7.51111C16.1244 8.72889 15.6237 10.3852 15.6237 12.477V13.5022H13.4133V16.7704H15.6237V29.3926H6.12444C4.18074 29.3926 2.60741 27.8193 2.60741 25.8756V6.12444C2.60741 4.18074 4.18074 2.60741 6.12444 2.60741H25.8785C27.8222 2.60741 29.3956 4.18074 29.3956 6.12444V25.8756Z" fill="#062C84"/>
</svg>
