<svg width="728" height="780" viewBox="0 0 728 780" fill="none" xmlns="http://www.w3.org/2000/svg">
<path d="M612.603 128.667C493.624 -19.3818 277.032 -43.2877 129.146 75.8226C-18.7393 194.933 -42.6189 411.764 76.3601 559.813C169.365 675.568 321.44 715.412 454.244 670.535L416.958 566.524C327.305 595.882 225.084 568.621 162.662 490.612C81.8063 389.955 97.726 242.745 198.272 162.22C298.817 81.2748 445.446 97.6316 526.302 197.869C588.724 275.878 593.332 381.567 545.573 462.931L638.996 521.648C711.473 401.698 705.608 244.422 612.603 128.667Z" fill="white"/>
<path d="M727.812 628.176L597.941 660.051L539.289 780L494.044 654.179L456.339 549.329L414.026 430.638L520.856 497.742L615.117 557.297L727.812 628.176Z" fill="white"/>
</svg>
