<svg width="32" height="32" viewBox="0 0 32 32" fill="none" xmlns="http://www.w3.org/2000/svg">
<path d="M26 0H6C2.68741 0 0 2.68741 0 6V25.997C0 29.3126 2.68741 32 6 32H25.997C29.3126 32 31.997 29.3126 31.997 26V6C32 2.68741 29.3126 0 26 0ZM29.3926 25.8756C29.3926 27.8193 27.8193 29.3926 25.8756 29.3926H6.12444C4.18074 29.3926 2.60741 27.8193 2.60741 25.8756V6.12444C2.60741 4.18074 4.18074 2.60741 6.12444 2.60741H25.8785C27.8193 2.60741 29.3926 4.18074 29.3926 6.12444V25.8756Z" fill="#062C84"/>
<path d="M16.0503 24.2754C14.5985 24.2577 13.2266 23.9228 11.9585 23.2029C10.6222 22.4443 9.55256 21.4132 8.79404 20.074C8.26367 19.1377 7.93479 18.1332 7.79849 17.0666C7.75108 16.6962 7.67404 16.3229 7.69182 15.9554C7.71553 15.431 7.78664 14.9066 7.88738 14.391C8.17182 12.9332 8.82367 11.6414 9.75997 10.4947C10.4948 9.59693 11.4222 8.94211 12.4711 8.46211C13.7155 7.89322 15.0281 7.65322 16.3911 7.73619C18.394 7.86063 20.1629 8.5747 21.6533 9.92878C22.7111 10.8917 23.4578 12.068 23.8963 13.431C24.24 14.4977 24.3703 15.591 24.2696 16.7051C24.1185 18.394 23.5022 19.8991 22.4296 21.2147C21.5318 22.314 20.4207 23.1347 19.1081 23.674C18.1333 24.0769 17.1111 24.2784 16.0503 24.2754ZM21.3037 15.8191C21.3066 15.5584 21.277 15.1851 21.1911 14.8206C20.8652 13.4488 20.0977 12.3791 18.9422 11.5851C18.1955 11.0725 17.3689 10.7703 16.4652 10.7199C15.4785 10.6636 14.5333 10.8473 13.6474 11.2858C12.5748 11.8162 11.7629 12.6103 11.2326 13.6858C10.7792 14.6073 10.6518 15.5821 10.7822 16.5954C10.9185 17.6443 11.3037 18.5895 11.9792 19.4073C12.7911 20.391 13.8222 21.0132 15.0874 21.2147C16.1452 21.3836 17.1733 21.2384 18.157 20.8206C19.1496 20.3969 19.9318 19.7243 20.4977 18.8058C21.037 17.9229 21.2829 16.9569 21.3037 15.8191Z" fill="#062C84"/>
<path d="M23.354 6.38864C23.3629 5.3753 24.0444 4.62271 25.0518 4.52493C25.7333 4.45975 26.3436 4.6316 26.8296 5.13234C27.2444 5.55604 27.3836 6.08642 27.351 6.66419C27.2918 7.70123 26.5155 8.32642 25.6236 8.43012C25.0281 8.49827 24.4859 8.36493 24.0207 7.9679C23.671 7.66864 23.4755 7.28345 23.4014 6.83605C23.3807 6.6879 23.3688 6.53679 23.354 6.38864Z" fill="#062C84"/>
</svg>
