<svg width="120" height="120" viewBox="0 0 120 120" fill="none" xmlns="http://www.w3.org/2000/svg">
<g clip-path="url(#clip0)">
<path d="M57.0892 120C55.8685 119.906 54.554 119.718 53.3333 119.624C44.9765 118.685 37.1831 116.244 29.953 111.925C15.1174 103.099 5.6338 90.2347 1.59624 73.5211C0.0938926 67.3239 -0.281694 61.0329 0.281686 54.7418C1.78403 38.6854 8.63849 25.3521 20.6573 14.7418C28.7324 7.60563 38.1221 3.00469 48.8263 1.12675C66.4789 -2.06574 82.6291 1.69013 96.8075 12.676C108.263 21.5023 115.587 33.2394 118.592 47.4178C119.249 50.4225 119.437 53.5211 119.812 56.5258C119.812 56.8075 119.906 57.0892 119.906 57.277C119.906 59.061 119.906 60.939 119.906 62.723C119.906 63.0047 119.812 63.1925 119.812 63.4742C119.624 66.8544 119.155 70.1408 118.404 73.4272C114.742 88.6385 106.479 100.751 93.615 109.577C85.446 115.211 76.4319 118.498 66.6667 119.531C65.446 119.624 64.1314 119.812 62.9108 119.906C61.0329 120 59.061 120 57.0892 120ZM115.211 60C115.211 29.6714 90.5164 4.88262 60.1878 4.78872C29.6714 4.78872 4.88262 29.3897 4.78873 59.9061C4.69483 90.3286 29.4836 115.117 59.9061 115.117C90.3286 115.211 115.211 90.4225 115.211 60Z" fill="#062C84"/>
<path d="M65.1925 51.7877C63.0329 51.7877 60.9672 51.7877 58.8075 51.7877C56.7418 51.7877 54.6761 51.7877 52.5164 51.7877C52.5164 53.9474 52.5164 56.107 52.5164 58.2666C56.2723 58.2666 60.1221 58.2666 63.8779 58.2666C63.8779 59.9567 63.8779 61.6469 63.8779 63.337C60.1221 63.337 56.2723 63.337 52.5164 63.337C52.5164 65.4967 52.5164 67.6563 52.5164 69.8159C56.7418 69.8159 60.8733 69.8159 65.0986 69.8159C65.0986 71.5999 65.0986 73.1962 65.0986 74.9802C59.0892 74.9802 53.1737 74.9802 47.0704 74.9802C47.0704 65.4967 47.0704 56.107 47.0704 46.6234C53.0798 46.6234 58.9953 46.6234 65.0047 46.6234C65.1925 48.3136 65.1925 50.0037 65.1925 51.7877Z" fill="#062C84"/>
<path d="M96.0845 68.5953C94.7699 67.7502 93.4554 66.9051 92.1408 65.9662C94.8638 60.9896 93.1737 55.8253 89.7934 53.1023C86.2253 50.1915 81.3427 50.0037 77.6807 52.6328C73.8309 55.3558 72.2347 60.0507 73.8309 64.3699C74.7699 66.9051 76.4601 68.7831 78.9014 70.0037C81.3427 71.1305 83.784 71.3183 86.4131 70.5671C86.9765 72.0694 87.446 73.4779 88.0093 74.9802C83.5962 76.8582 75.8967 76.0131 71.3896 69.9098C66.8826 63.9004 67.5399 55.3558 72.9859 50.1915C78.6197 44.8394 87.1643 44.6516 93.0798 49.722C98.9014 54.4169 99.8403 62.6798 96.0845 68.5953Z" fill="#062C84"/>
<path d="M26.8826 65.5906C27.3521 67.093 28.0094 68.4075 29.23 69.4404C30.9202 70.8488 33.831 70.9427 35.5211 69.6282C37.0235 68.5014 37.2113 66.2479 35.8028 64.9333C35.3333 64.4639 34.77 64.0883 34.1127 63.7127C32.7981 63.0554 31.3897 62.492 29.9812 62.0225C28.0094 61.2714 26.1315 60.4263 24.6291 58.83C21.6244 55.4498 22.3756 50.1916 26.3192 47.5624C28.4789 46.0601 30.9202 45.8723 33.4554 46.0601C34.1127 46.154 34.8638 46.2479 35.5211 46.4357C38.4319 47.2808 40.1221 49.3465 41.3427 52.0695C39.6526 52.7268 38.1502 53.384 36.7418 53.9474C36.0845 53.1962 35.615 52.4451 34.9577 51.7878C33.4554 50.4732 30.8263 50.5671 29.3239 51.7878C28.0094 52.8207 27.9155 54.6986 29.3239 55.9192C30.4507 56.8582 31.7653 57.4216 33.1737 57.7972C35.3333 58.4545 37.3991 59.2056 39.277 60.6141C43.8779 63.9944 43.5023 71.5061 37.9624 74.4169C31.5775 77.7033 23.8779 74.5108 22 67.5624C23.4085 66.9052 25.0986 66.2479 26.8826 65.5906Z" fill="#062C84"/>
<path d="M86.3193 64.4638C90.9202 67.3746 95.4273 70.1915 100.028 73.1023C98.9014 73.384 97.9625 73.6657 97.0235 73.8535C96.3662 74.0413 95.7089 74.2291 94.9578 74.323C94.4883 74.4169 94.3005 74.6046 94.1127 74.9802C93.3615 76.4826 92.6104 77.9849 91.7653 79.6751C89.9812 74.6046 88.1972 69.6281 86.3193 64.4638Z" fill="#9520F1"/>
</g>
<defs>
<clipPath id="clip0">
<rect width="120" height="120" fill="white"/>
</clipPath>
</defs>
</svg>
