<svg width="120" height="120" viewBox="0 0 120 120" fill="none" xmlns="http://www.w3.org/2000/svg">
<g clip-path="url(#clip0)">
<path d="M120 56.5C119.7 54 119.5 51.4 119.1 48.9C116.5 35.1 109.8 23.5 99.2 14.5C85.9 3.19998 70.6 -1.40002 53.3 0.399975C46.4 0.999976 39.9 2.99998 33.7 5.99998C14.8 15.2 1.99999 33.7 0.199992 54.7C-0.300008 61 0.0999917 67.3 1.59999 73.5C5.49999 89.7 14.5 102.3 28.5 111.1C36 115.9 44.3 118.7 53.2 119.7C54.5 119.8 55.7 120 57 120.1C59 120.1 60.9 120.1 63 120.4C64.2 120.3 65.5 120.1 66.8 120C76.7 118.9 85.7 115.6 93.8 109.9C106.6 101 114.8 89 118.5 73.8C119.3 70.5 119.7 67.2 119.9 63.8C119.9 63.5 120 63.3 120 63V57.2C120.1 56.9 120 56.8 120 56.5ZM60 115.2C29.5 115.2 4.79999 90.4 4.79999 60C4.79999 29.5 29.5 4.79998 60 4.79998C90.5 4.79998 115.2 29.6 115.2 60C115.2 90.3 90.3 115.2 60 115.2Z" fill="#062C84"/>
<path d="M79.2 63.3H76.1V79.8C62.9 73.1 48.8 69.8 34 69.3V56.9C44.2 56.4 54.1 54.8 63.7 51.6C63.6 50.5 63.5 49.4 63.4 48.4C63.3 48.5 63.2 48.5 63.1 48.5C59.9 49.4 56.7 50.5 53.5 51.2C45.5 53.2 37.4 53.6 29.3 53.7C24.6 53.7 20.7 57.2 20 61.8C19.4 66.4 22.4 70.9 26.9 72.1C27.5 72.3 28 72.4 28.6 72.5C28.5 74.8 29.2 77 30.6 78.8C32.2 80.6 34.2 81.6 36.5 81.8C38.6 82 40.4 81.5 42.1 80.3C44.5 78.7 45.7 76.4 46 73.6C46.2 73.6 46.2 73.6 46.3 73.6C49.1 74.2 51.9 74.6 54.8 75.3C62.3 77.1 69.5 79.6 76.2 83.4C77.8 84.3 79.3 83.4 79.3 81.5C79.2 75.7 79.3 69.8 79.3 63.9V63.3H79.2ZM30.8 69.4C28 69.7 25.6 68.8 24.1 66.4C22.7 64.1 22.9 61.7 24.4 59.5C26 57.3 28.2 56.7 30.8 57V69.4ZM40.2 78.2C38.1 79.4 35.6 79.2 33.7 77.7C32.2 76.5 31.3 74.1 31.8 72.5C35.5 72.7 39.1 72.9 42.8 73.1C43.2 74.9 41.9 77.1 40.2 78.2Z" fill="#062C84"/>
<path d="M99.8 47.8C99.3 41.5 93.8 36.1 87.3 36C84.1 35.9 80.8 35.9 77.6 36C73.8 36.1 70.7 37.7 68.2 40.5C65 44.2 63.8 50 66.5 54.6C66.6 54.8 66.5 55.2 66.4 55.4C65.2 57.4 64 59.2 62.7 61.1C62.5 61.3 62.4 61.5 62.2 61.8C62.5 61.9 62.7 61.9 63 61.8H86.6C87.4 61.8 88.2 61.7 88.9 61.6C95.2 60.6 100.3 54.8 99.8 47.8ZM75.6 51.2C74.3 51.2 73.2 50.1 73.2 48.7C73.2 47.3 74.3 46.2 75.6 46.2C76.9 46.2 78 47.2 78 48.6C78 50.1 76.9 51.2 75.6 51.2ZM81.9 51.2C80.6 51.2 79.5 50.1 79.5 48.7C79.5 47.4 80.6 46.3 81.9 46.3C83.3 46.3 84.4 47.4 84.3 48.8C84.4 50.1 83.3 51.2 81.9 51.2ZM88.4 51.2C87 51.2 85.9 50 85.9 48.7C85.9 47.4 87.1 46.2 88.4 46.3C89.6 46.3 90.8 47.4 90.8 48.7C90.9 50 89.7 51.2 88.4 51.2Z" fill="#29CCB8"/>
</g>
<defs>
<clipPath id="clip0">
<rect width="120" height="120" fill="white"/>
</clipPath>
</defs>
</svg>
