<svg width="120" height="120" viewBox="0 0 120 120" fill="none" xmlns="http://www.w3.org/2000/svg">
<g clip-path="url(#clip0)">
<path d="M120 62.8169C119.906 64.1314 119.718 65.446 119.624 66.6666C118.498 76.5258 115.211 85.6338 109.577 93.8028C100.751 106.573 88.7324 115.023 73.5211 118.404C54.1784 122.723 36.6197 118.498 21.4084 105.822C11.1737 97.3709 4.69483 86.4789 1.59624 73.5211C0.0938926 67.3239 -0.281694 61.0328 0.281686 54.6479C2.25352 30.892 18.4038 10.7042 40.7512 3.19246C45.8216 1.50232 50.9859 0.469459 56.2441 0.187769C56.4319 0.187769 56.7136 0.0938721 56.9014 0.0938721C58.9671 0.0938721 60.939 0.0938721 63.0047 0.0938721C63.1925 0.0938721 63.3803 0.187769 63.5681 0.187769C65.9155 0.469459 68.3568 0.563356 70.7042 1.03284C85.7277 3.84974 97.9343 11.3615 107.418 23.3803C114.085 31.9249 118.028 41.5962 119.437 52.3004C119.624 53.9906 119.812 55.6807 119.906 57.3709C120 59.1549 120 60.9389 120 62.8169ZM115.211 60C115.211 29.6713 90.5164 4.8826 60.1878 4.78871C29.6714 4.78871 4.88263 29.3896 4.78873 59.9061C4.69483 90.3286 29.4836 115.117 60 115.211C90.3286 115.211 115.211 90.4225 115.211 60Z" fill="#062C84"/>
<path d="M69.108 40.0939C73.0516 42.9108 76.9014 45.6338 80.7512 48.3568C79.4366 50.9859 73.1455 53.7089 69.8591 53.1455C63.0986 52.0187 58.4037 47.7934 57.7465 42.1596C56.9953 35.7746 60 30.2347 65.446 27.8873C70.4225 25.7277 76.8075 26.9483 79.9061 30.7042C76.338 33.8028 72.7699 36.9014 69.108 40.0939Z" fill="#FF3D12"/>
<path d="M79.2489 93.1455C80 91.4554 80.6573 90.0469 81.4085 88.4507C81.0329 88.4507 80.8451 88.4507 80.5634 88.4507C65.446 88.4507 50.4226 88.4507 35.3052 88.4507C35.0235 88.4507 34.7418 88.4507 34.4601 88.3568C33.6151 88.169 33.1456 87.3239 33.1456 86.5727C33.2395 85.6338 33.8967 84.9765 34.7418 84.9765C35.0235 84.9765 35.3052 84.9765 35.493 84.9765C50.5165 84.9765 65.446 84.9765 80.4695 84.9765C80.7512 84.9765 81.0329 84.9765 81.5024 84.9765C80.6573 83.2864 79.9061 81.784 79.0611 80.0939C85.446 82.1596 91.7371 84.2253 98.0282 86.291C98.0282 86.3849 98.0282 86.3849 98.0282 86.4788C91.831 88.6385 85.6338 90.892 79.2489 93.1455Z" fill="#062C84"/>
<path d="M45.0704 63.4741C45.0704 58.8732 45.0704 54.3661 45.0704 49.7652C45.0704 48.4506 45.9155 47.4178 47.1362 47.3239C48.4507 47.23 49.5775 48.075 49.7653 49.3896C49.7653 49.4835 49.7653 49.5774 49.7653 49.7652C49.7653 58.8732 49.7653 67.9812 49.7653 77.183C49.7653 78.4037 49.108 79.2488 48.0751 79.5304C46.5728 79.9999 45.0704 78.9671 45.0704 77.3708C45.0704 75.6807 45.0704 73.8967 45.0704 72.2065C45.0704 69.2957 45.0704 66.3849 45.0704 63.4741Z" fill="#062C84"/>
<path d="M56.9014 49.1079C58.122 50.9858 59.5305 52.3943 61.2206 53.5211C61.4084 53.7089 61.5023 53.9905 61.5023 54.2722C61.5023 59.3427 61.5023 64.4131 61.5023 69.3896C61.5023 71.9248 61.5023 74.5539 61.5023 77.0891C61.5023 78.4037 60.7512 79.2488 59.5305 79.5305C58.4976 79.7182 57.3709 79.061 56.9953 78.0281C56.9014 77.7464 56.8075 77.3708 56.8075 76.9952C56.8075 67.8873 56.8075 58.7793 56.8075 49.5774C56.9014 49.5774 56.9014 49.4835 56.9014 49.1079Z" fill="#062C84"/>
<path d="M38.0282 66.291C38.0282 69.8591 38.0282 73.4272 38.0282 77.0892C38.0282 78.5915 37.0892 79.6244 35.7747 79.6244C34.3662 79.6244 33.4272 78.5915 33.4272 77.0892C33.4272 69.8591 33.4272 62.723 33.4272 55.4929C33.4272 54.1784 34.2723 53.1455 35.493 53.0516C36.6197 52.9577 37.6526 53.615 37.9343 54.7417C38.0282 55.0234 38.0282 55.399 38.0282 55.6807C38.0282 59.1549 38.0282 62.723 38.0282 66.291Z" fill="#062C84"/>
<path d="M69.108 56.5258C70.6103 56.5258 72.1127 56.5258 73.7089 56.5258C73.7089 56.7136 73.7089 56.9013 73.7089 57.183C73.7089 63.7558 73.7089 70.4225 73.7089 76.9952C73.7089 77.3708 73.7089 77.8403 73.5211 78.2159C73.2395 79.2488 72.2066 79.8121 71.2676 79.8121C70.2348 79.7182 69.3897 78.9671 69.108 78.0281C69.0141 77.7464 69.0141 77.4647 69.0141 77.2769C69.0141 70.5164 69.0141 63.8497 69.0141 57.0891C69.108 56.8074 69.108 56.7136 69.108 56.5258Z" fill="#062C84"/>
<path d="M81.5024 32.3004C84.9765 35.7746 85.2582 42.3474 82.1596 46.291C79.061 44.1314 76.0564 41.8779 72.9578 39.7183C75.7747 37.2769 78.5916 34.8356 81.5024 32.3004Z" fill="#FF3D12"/>
</g>
<defs>
<clipPath id="clip0">
<rect width="120" height="120" fill="white"/>
</clipPath>
</defs>
</svg>
