<svg width="32" height="32" viewBox="0 0 32 32" fill="none" xmlns="http://www.w3.org/2000/svg">
<path d="M26 0H6C2.68741 0 0 2.68741 0 6V25.997C0 29.3126 2.68741 32 6 32H25.997C29.3126 32 31.997 29.3126 31.997 26V6C32 2.68741 29.3126 0 26 0ZM29.3926 25.8756C29.3926 27.8193 27.8193 29.3926 25.8756 29.3926H6.12444C4.18074 29.3926 2.60741 27.8193 2.60741 25.8756V6.12444C2.60741 4.18074 4.18074 2.60741 6.12444 2.60741H25.8785C27.8193 2.60741 29.3926 4.18074 29.3926 6.12444V25.8756Z" fill="#062C84"/>
<path d="M24.1423 11.3986C24.1423 12.3141 24.1423 13.2297 24.1423 14.1482C24.1423 14.566 23.9112 14.7882 23.4964 14.7823C22.3171 14.7586 21.2001 14.4949 20.1512 13.9527C20.1245 13.9408 20.0979 13.9319 20.0445 13.9082V14.1008C20.0416 15.8727 20.0949 17.6445 20.0268 19.4134C19.9319 21.8519 18.7349 23.6623 16.5394 24.7052C14.3971 25.7245 12.2905 25.4964 10.3616 24.1186C8.8712 23.0549 8.03565 21.5615 7.88157 19.7304C7.63861 16.8445 9.37787 14.2667 12.1275 13.3838C12.7112 13.1971 13.3156 13.1053 13.929 13.1082C14.2519 13.1112 14.4919 13.3216 14.4919 13.6445C14.5008 14.6223 14.5008 15.6001 14.4919 16.5749C14.489 16.9008 14.2549 17.1053 13.9142 17.1171C12.7882 17.1586 11.9379 17.9882 11.8697 19.1082C11.8194 19.9497 12.3379 20.7793 13.126 21.1141C13.9319 21.4578 14.8771 21.2623 15.4579 20.6371C15.8549 20.2104 16.0386 19.7067 16.0386 19.123C16.0356 15.1941 16.0416 11.2653 16.0327 7.33638C16.0327 6.93045 16.2816 6.65489 16.7082 6.66378C17.6031 6.68452 18.5008 6.66971 19.3956 6.66971C19.8431 6.66971 20.0356 6.85638 20.0534 7.30082C20.1127 8.86823 21.1142 10.1779 22.6045 10.6104C22.9038 10.6964 23.2238 10.729 23.5349 10.7527C23.9349 10.7882 24.1423 10.9897 24.1423 11.3986Z" fill="#062C84"/>
</svg>
