<?xml version="1.0" encoding="utf-8"?>
<svg version="1.1" id="Layer_1" xmlns="http://www.w3.org/2000/svg" xmlns:xlink="http://www.w3.org/1999/xlink" x="0px" y="0px"
	 viewBox="0 0 1000 1000" style="enable-background:new 0 0 1000 1000;" xml:space="preserve">
<style type="text/css">
	.st0{fill:#1952B9;}
</style>
<g id="_8d8e6566e923199c33e0d088e5005dea" transform="translate(50 -10) rotate(90)">
	<path id="Path_441" class="st0" d="M10-450C10-173.9,233.9,50,510,50s500-223.9,500-500S786.1-950,510-950S10-726.1,10-450z
		 M229.1-424.6c0,0-0.2-0.2-0.2-0.3c-0.3-0.4-0.7-0.8-1-1.2c0,0,0,0,0-0.2c-0.3-0.5-0.7-0.9-1-1.4l0,0c-3.6-5.4-5.9-11.7-6.5-18.2
		v-0.2c0-0.6,0-1.2,0-1.7v-4.1c0-0.6,0-1.1,0-1.7v-0.2c0.6-6.5,2.8-12.8,6.5-18.2l0,0c0.3-0.5,0.7-1,1-1.4c0,0,0,0,0-0.2
		c0.3-0.5,0.6-0.9,1-1.4c0,0,0.2-0.2,0.2-0.3c0.3-0.4,0.7-0.8,1-1.1l0.3-0.3c0.4-0.5,0.9-0.9,1.3-1.4l250-250
		c15.6-15.6,41-15.6,56.6,0s15.6,41,0,56.6L356.7-490H760c22.1,0,40,17.9,40,40s-17.9,40-40,40H356.6l181.6,181.6
		c15.7,15.6,15.8,40.9,0.2,56.6c-7.5,7.6-17.8,11.8-28.4,11.8c-10.6,0-20.8-4.2-28.3-11.7l-250-250c-0.5-0.4-0.9-0.9-1.3-1.4
		l-0.3-0.3C229.7-423.8,229.4-424.2,229.1-424.6z"/>
</g>
</svg>
