<svg width="24" height="24" viewBox="0 0 24 24" fill="none" xmlns="http://www.w3.org/2000/svg">
<path d="M16.92 5.27982C17.28 5.27982 17.64 5.63982 17.64 5.99982C17.64 6.35982 17.28 6.71982 16.92 6.71982H2.52C2.16 6.71982 1.8 6.47982 1.8 5.99982C1.8 5.51982 2.16 5.27982 2.52 5.27982H16.92ZM16.92 4.31982H2.52C1.56 4.31982 0.84 5.15982 0.84 5.99982C0.84 6.83982 1.56 7.67982 2.52 7.67982H16.8C17.76 7.67982 18.48 6.95982 18.48 5.99982C18.48 5.03982 17.76 4.31982 16.92 4.31982Z" fill="#062C84"/>
<path d="M16.92 11.2798C17.28 11.2798 17.64 11.6398 17.64 11.9998C17.64 12.3598 17.28 12.7198 16.92 12.7198H2.52C2.16 12.7198 1.8 12.3598 1.8 11.9998C1.8 11.6398 2.16 11.2798 2.52 11.2798H16.92ZM16.92 10.3198H2.52C1.56 10.3198 0.84 11.0398 0.84 11.9998C0.84 12.9598 1.56 13.6798 2.52 13.6798H16.8C17.76 13.6798 18.48 12.9598 18.48 11.9998C18.48 11.0398 17.76 10.3198 16.92 10.3198Z" fill="#062C84"/>
<path d="M16.92 17.2798C17.28 17.2798 17.64 17.6398 17.64 17.9998C17.64 18.3598 17.28 18.7198 16.92 18.7198H2.52C2.16 18.7198 1.8 18.3598 1.8 17.9998C1.8 17.6398 2.16 17.2798 2.52 17.2798H16.92ZM16.92 16.3198H2.52C1.56 16.3198 0.84 17.0398 0.84 17.9998C0.84 18.9598 1.56 19.6798 2.52 19.6798H16.8C17.76 19.6798 18.48 18.9598 18.48 17.9998C18.6 17.0398 17.76 16.3198 16.92 16.3198Z" fill="#062C84"/>
<path d="M21.48 7.67982C22.4078 7.67982 23.16 6.92766 23.16 5.99982C23.16 5.07199 22.4078 4.31982 21.48 4.31982C20.5522 4.31982 19.8 5.07199 19.8 5.99982C19.8 6.92766 20.5522 7.67982 21.48 7.67982Z" fill="#29CCB8"/>
<path d="M21.48 13.6798C22.4078 13.6798 23.16 12.9277 23.16 11.9998C23.16 11.072 22.4078 10.3198 21.48 10.3198C20.5522 10.3198 19.8 11.072 19.8 11.9998C19.8 12.9277 20.5522 13.6798 21.48 13.6798Z" fill="#29CCB8"/>
<path d="M21.48 19.6798C22.4078 19.6798 23.16 18.9277 23.16 17.9998C23.16 17.072 22.4078 16.3198 21.48 16.3198C20.5522 16.3198 19.8 17.072 19.8 17.9998C19.8 18.9277 20.5522 19.6798 21.48 19.6798Z" fill="#29CCB8"/>
</svg>
