<svg width="24" height="24" viewBox="0 0 24 24" fill="none" xmlns="http://www.w3.org/2000/svg">
<path d="M12 4.43998C14.28 4.43998 16.2 6.35998 16.2 8.63998H15.12C15.12 6.95998 13.68 5.51998 12 5.51998C10.32 5.51998 8.88 6.83998 8.88 8.63998H7.8C7.8 6.35998 9.72 4.43998 12 4.43998ZM12 3.47998C9.12 3.47998 6.84 5.75998 6.84 8.63998V9.59998H7.8H8.88H9.84V8.63998C9.84 7.43998 10.8 6.47998 12 6.47998C13.2 6.47998 14.16 7.43998 14.16 8.63998V9.59998H15.12H16.2H17.16V8.63998C17.16 5.75998 14.88 3.47998 12 3.47998Z" fill="#062C84"/>
<path d="M20.16 19.6801H3.84C3.24 19.6801 2.64 19.2001 2.64 18.4801V9.84014C2.64 9.12014 3.24 8.64014 3.84 8.64014H20.16C20.88 8.64014 21.36 9.12014 21.36 9.84014V18.4801C21.36 19.0801 20.88 19.6801 20.16 19.6801Z" fill="#29CCB8"/>
</svg>
