<svg width="24" height="24" viewBox="0 0 24 24" fill="none" xmlns="http://www.w3.org/2000/svg">
<path d="M12 4.20023C12 4.20023 12.12 4.20023 12 4.20023C12.24 4.20023 12.48 4.44023 12.84 4.56023C12.96 4.56023 12.96 4.68023 13.08 4.68023L15 6.00023L16.92 7.32023L19.68 9.12023L21 9.96024C21.12 10.0802 21.24 10.3202 21.24 10.4402C21.24 10.5602 21.24 10.6802 21.12 10.8002C21 10.9202 20.76 11.0402 20.64 11.0402C20.52 11.0402 20.4 11.0402 20.28 10.9202L12.48 5.76023L12 5.52023L11.52 5.88023L3.72 11.0402C3.6 11.1602 3.48 11.1602 3.36 11.1602C3.12 11.1602 3 11.0402 2.88 10.9202C2.76 10.8002 2.76 10.6802 2.76 10.5602C2.76 10.3202 2.88 10.2002 3 10.0802L4.2 9.36024L5.4 8.40023L6.72 7.56023L8.16 6.60023L9.6 5.64023L10.2 5.28023C10.56 5.04023 11.04 4.68023 11.4 4.44023C11.64 4.32023 11.88 4.20023 12 4.20023ZM12 3.24023C11.64 3.24023 11.28 3.36023 10.92 3.60023C10.32 3.96023 9.72 4.44023 9.12 4.80023C8.16 5.52023 7.2 6.12023 6.24 6.72023C5.4 7.32023 4.44 7.92023 3.6 8.52023C3.24 8.76023 2.88 9.00023 2.4 9.24023C2.04 9.60023 1.8 10.0802 1.8 10.5602C1.8 10.8002 1.92 11.1602 2.04 11.4002C2.4 11.8802 2.88 12.1202 3.36 12.1202C3.72 12.1202 3.96 12.0002 4.2 11.8802L12 6.72023L19.8 11.8802C20.04 12.0002 20.4 12.1202 20.64 12.1202C21.12 12.1202 21.6 11.8802 21.96 11.4002C22.2 11.1602 22.2 10.8002 22.2 10.5602C22.2 10.0802 21.96 9.60023 21.48 9.24023C21 9.00023 20.64 8.64023 20.16 8.40023C19.2 7.80023 18.36 7.20023 17.4 6.60023C16.08 5.76023 14.76 4.80023 13.44 3.96023C13.08 3.72023 12.6 3.36023 12.12 3.24023C12.24 3.24023 12.12 3.24023 12 3.24023Z" fill="#062C84"/>
<path d="M17.04 20.76H6.96C6.12 20.76 5.52 20.16 5.52 19.32V12.96C5.52 12.12 6.12 11.52 6.96 11.52H17.04C17.88 11.52 18.48 12.12 18.48 12.96V19.32C18.48 20.16 17.88 20.76 17.04 20.76Z" fill="#29CCB8"/>
</svg>
