<svg width="24" height="24" viewBox="0 0 24 24" fill="none" xmlns="http://www.w3.org/2000/svg">
<path d="M20 7.2H3.99999C3.08571 7.2 2.39999 6.51429 2.39999 5.6C2.39999 4.8 3.08571 4 3.99999 4H20C20.9143 4 21.6 4.68571 21.6 5.6C21.6 6.51429 20.9143 7.2 20 7.2Z" fill="#29CCB8"/>
<path d="M15.3143 11.5428H3.99999C3.08571 11.5428 2.39999 10.8571 2.39999 9.94277C2.39999 9.02849 3.08571 8.34277 3.99999 8.34277H15.3143C16.2286 8.34277 16.9143 9.02849 16.9143 9.94277C16.9143 10.7428 16.2286 11.5428 15.3143 11.5428Z" fill="#29CCB8"/>
<path d="M10.6286 13.3713C10.9714 13.3713 11.3143 13.7142 11.3143 14.057C11.3143 14.3999 10.9714 14.7427 10.6286 14.7427H3.99999C3.65714 14.7427 3.31428 14.3999 3.31428 14.057C3.31428 13.7142 3.65714 13.3713 3.99999 13.3713H10.6286ZM10.6286 12.457H3.99999C3.08571 12.457 2.39999 13.1427 2.39999 14.057C2.39999 14.9713 3.08571 15.657 3.99999 15.657H10.6286C11.5429 15.657 12.2286 14.9713 12.2286 14.057C12.2286 13.257 11.4286 12.457 10.6286 12.457Z" fill="#062C84"/>
<path d="M16.5714 20.0003H3.99999C3.08571 20.0003 2.39999 19.3146 2.39999 18.4003C2.39999 17.486 3.08571 16.8003 3.99999 16.8003H16.5714C17.4857 16.8003 18.1714 17.486 18.1714 18.4003C18.1714 19.2003 17.3714 20.0003 16.5714 20.0003Z" fill="#29CCB8"/>
</svg>
